<?xml version="1.0" encoding="utf-8"?>
<svg xmlns="http://www.w3.org/2000/svg" version="1.1" width="1000" height="800">

<line x1="100" y1="400" x2="400" y2="400" stroke="black" />
<text x="200" y="390" fill="black" >(4.00 ; 4.00)</text>
<line x1="300" y1="300" x2="400" y2="400" stroke="black" />
<text x="355" y="350" fill="black" >(3.00 ; 4.00)</text>
<line x1="200" y1="200" x2="300" y2="200" stroke="black" />
<text x="200" y="190" fill="black" >(6.00 ; 4.00)</text>
<line x1="100" y1="100" x2="200" y2="200" stroke="black" />
<text x="155" y="150" fill="black" >(9.00 ; 4.00)</text>
<line x1="100" y1="100" x2="100" y2="400" stroke="black" />
<text x="105" y="250" fill="black" >(2.00 ; 3.00)</text>
<line x1="100" y1="100" x2="400" y2="100" stroke="black" />
<text x="200" y="90" fill="black" >(5.00 ; 5.00)</text>
<line x1="400" y1="100" x2="300" y2="200" stroke="black" />
<text x="355" y="150" fill="black" >(7.00 ; 2.00)</text>
<line x1="400" y1="100" x2="400" y2="400" stroke="black" />
<text x="405" y="250" fill="black" >(6.00 ; 3.00)</text>
<line x1="200" y1="200" x2="200" y2="300" stroke="black" />
<text x="205" y="250" fill="black" >(9.00 ; 7.00)</text>
<line x1="300" y1="200" x2="300" y2="300" stroke="black" />
<text x="305" y="250" fill="black" >(1.00 ; 2.00)</text>
<line x1="200" y1="300" x2="100" y2="400" stroke="black" />
<text x="155" y="350" fill="black" >(2.00 ; 7.00)</text>
<line x1="200" y1="300" x2="300" y2="300" stroke="black" />
<text x="200" y="290" fill="black" >(5.00 ; 9.00)</text>
<circle cx="400" cy="400" r="7" fill="black" fill-opacity="1" />
<circle cx="100" cy="400" r="7" fill="black" fill-opacity="1" />
<circle cx="300" cy="300" r="7" fill="black" fill-opacity="1" />
<circle cx="200" cy="300" r="7" fill="black" fill-opacity="1" />
<circle cx="100" cy="100" r="7" fill="black" fill-opacity="1" />
<circle cx="400" cy="100" r="7" fill="black" fill-opacity="1" />
<circle cx="200" cy="200" r="7" fill="black" fill-opacity="1" />
<circle cx="300" cy="200" r="7" fill="black" fill-opacity="1" />


</svg>
