<?xml version="1.0" encoding="utf-8"?>
<svg xmlns="http://www.w3.org/2000/svg" version="1.1" width="5000" height="20000">

<line x1="375" y1="50" x2="475" y2="50" stroke="black" />
<line x1="375" y1="50" x2="375" y2="150" stroke="black" />
<line x1="475" y1="50" x2="375" y2="150" stroke="black" />
<line x1="475" y1="50" x2="475" y2="150" stroke="black" />
<line x1="375" y1="150" x2="475" y2="150" stroke="black" />
<circle cx="375" cy="50" r="7" fill="black" fill-opacity="1" />
<circle cx="475" cy="50" r="7" fill="black" fill-opacity="1" />
<circle cx="375" cy="150" r="7" fill="black" fill-opacity="1" />
<circle cx="475" cy="150" r="7" fill="black" fill-opacity="1" />
<line x1="1050" y1="900" x2="1900" y2="900" stroke="black" />
<line x1="1100" y1="100" x2="1100" y2="950" stroke="black" />
<circle cx="nan" cy="nan" r="2" fill="rgb(255,0,0)" fill-opacity="100" />
<circle cx="inf" cy="-inf" r="2" fill="rgb(255,0,0)" fill-opacity="100" />
<circle cx="inf" cy="-inf" r="2" fill="rgb(255,0,0)" fill-opacity="100" />
<circle cx="inf" cy="-inf" r="2" fill="rgb(255,0,0)" fill-opacity="100" />
<circle cx="inf" cy="-inf" r="2" fill="rgb(255,0,0)" fill-opacity="100" />
<circle cx="inf" cy="-inf" r="2" fill="rgb(255,0,0)" fill-opacity="100" />
<circle cx="inf" cy="-inf" r="2" fill="rgb(255,0,0)" fill-opacity="100" />
<circle cx="inf" cy="-inf" r="2" fill="rgb(255,0,0)" fill-opacity="100" />
<circle cx="inf" cy="-inf" r="2" fill="rgb(255,0,0)" fill-opacity="100" />
<circle cx="inf" cy="-inf" r="2" fill="rgb(255,0,0)" fill-opacity="100" />
<circle cx="inf" cy="-inf" r="2" fill="rgb(255,0,0)" fill-opacity="100" />
<circle cx="inf" cy="-inf" r="2" fill="rgb(255,0,0)" fill-opacity="100" />
<circle cx="inf" cy="-inf" r="2" fill="rgb(255,0,0)" fill-opacity="100" />
<circle cx="inf" cy="-inf" r="2" fill="rgb(255,0,0)" fill-opacity="100" />
<circle cx="inf" cy="-inf" r="5" fill="rgb(0,200,0)" fill-opacity="100" />
<line x1="150" y1="450" x2="200" y2="450" stroke="black" />
<line x1="150" y1="450" x2="150" y2="500" stroke="black" />
<line x1="200" y1="450" x2="200" y2="500" stroke="black" />
<circle cx="150" cy="450" r="3.5" fill="black" fill-opacity="1" />
<circle cx="200" cy="450" r="3.5" fill="black" fill-opacity="1" />
<circle cx="150" cy="500" r="3.5" fill="black" fill-opacity="1" />
<circle cx="200" cy="500" r="3.5" fill="black" fill-opacity="1" />
<text x="150" y="430" fill="black" >(18 ; </text>
<text x="150" y="430" fill="black" >(18 ; 14)</text>


</svg>
