<?xml version="1.0" encoding="utf-8"?>
<svg xmlns="http://www.w3.org/2000/svg" version="1.1" width="100000" height="500000">

<line x1="200" y1="100" x2="300" y2="100" stroke="black" />
<text x="200" y="90" fill="black" >(9.00 ; 8.00)</text>
<line x1="200" y1="100" x2="300" y2="100" stroke="black" />
<text x="200" y="90" fill="black" >(9.00 ; 8.00)</text>
<line x1="200" y1="100" x2="300" y2="100" stroke="black" />
<text x="200" y="90" fill="black" >(9.00 ; 8.00)</text>
<line x1="200" y1="100" x2="300" y2="100" stroke="black" />
<text x="200" y="90" fill="black" >(9.00 ; 8.00)</text>
<line x1="200" y1="100" x2="300" y2="100" stroke="black" />
<text x="200" y="90" fill="black" >(9.00 ; 8.00)</text>
<line x1="200" y1="100" x2="300" y2="100" stroke="black" />
<text x="200" y="90" fill="black" >(9.00 ; 8.00)</text>
<line x1="200" y1="100" x2="300" y2="100" stroke="black" />
<text x="200" y="90" fill="black" >(9.00 ; 8.00)</text>
<line x1="200" y1="100" x2="300" y2="100" stroke="black" />
<text x="200" y="90" fill="black" >(9.00 ; 8.00)</text>
<line x1="200" y1="100" x2="300" y2="100" stroke="black" />
<text x="200" y="90" fill="black" >(9.00 ; 8.00)</text>
<line x1="200" y1="100" x2="300" y2="100" stroke="black" />
<text x="200" y="90" fill="black" >(9.00 ; 8.00)</text>
<line x1="200" y1="100" x2="300" y2="100" stroke="black" />
<text x="200" y="90" fill="black" >(9.00 ; 8.00)</text>
<line x1="200" y1="100" x2="300" y2="100" stroke="black" />
<text x="200" y="90" fill="black" >(9.00 ; 8.00)</text>
<line x1="200" y1="100" x2="300" y2="100" stroke="black" />
<text x="200" y="90" fill="black" >(9.00 ; 8.00)</text>
<line x1="200" y1="100" x2="300" y2="100" stroke="black" />
<text x="200" y="90" fill="black" >(9.00 ; 8.00)</text>
<line x1="200" y1="100" x2="300" y2="100" stroke="black" />
<text x="200" y="90" fill="black" >(9.00 ; 8.00)</text>
<circle cx="100" cy="100" r="7" fill="black" fill-opacity="1" />
<circle cx="200" cy="100" r="7" fill="black" fill-opacity="1" />
<circle cx="300" cy="100" r="7" fill="black" fill-opacity="1" />
<circle cx="400" cy="100" r="7" fill="black" fill-opacity="1" />
<circle cx="100" cy="200" r="7" fill="black" fill-opacity="1" />
<circle cx="200" cy="200" r="7" fill="black" fill-opacity="1" />
<circle cx="300" cy="200" r="7" fill="black" fill-opacity="1" />
<circle cx="400" cy="200" r="7" fill="black" fill-opacity="1" />
<circle cx="100" cy="300" r="7" fill="black" fill-opacity="1" />
<circle cx="200" cy="300" r="7" fill="black" fill-opacity="1" />
<circle cx="300" cy="300" r="7" fill="black" fill-opacity="1" />
<circle cx="400" cy="300" r="7" fill="black" fill-opacity="1" />
<circle cx="100" cy="400" r="7" fill="black" fill-opacity="1" />
<circle cx="200" cy="400" r="7" fill="black" fill-opacity="1" />
<circle cx="300" cy="400" r="7" fill="black" fill-opacity="1" />
<circle cx="400" cy="400" r="7" fill="black" fill-opacity="1" />
<line x1="1000" y1="100" x2="1100" y2="100" stroke="black" />
<text x="1000" y="90" fill="black" >(9.00 ; 8.00)</text>
<line x1="1000" y1="100" x2="1100" y2="100" stroke="black" />
<text x="1000" y="90" fill="black" >(9.00 ; 8.00)</text>
<line x1="1000" y1="100" x2="1100" y2="100" stroke="black" />
<text x="1000" y="90" fill="black" >(9.00 ; 8.00)</text>
<line x1="1000" y1="100" x2="1100" y2="100" stroke="black" />
<text x="1000" y="90" fill="black" >(9.00 ; 8.00)</text>
<line x1="1000" y1="100" x2="1100" y2="100" stroke="black" />
<text x="1000" y="90" fill="black" >(9.00 ; 8.00)</text>
<line x1="1000" y1="100" x2="1100" y2="100" stroke="black" />
<text x="1000" y="90" fill="black" >(9.00 ; 8.00)</text>
<line x1="1000" y1="100" x2="1100" y2="100" stroke="black" />
<text x="1000" y="90" fill="black" >(9.00 ; 8.00)</text>
<line x1="1000" y1="100" x2="1100" y2="100" stroke="black" />
<text x="1000" y="90" fill="black" >(9.00 ; 8.00)</text>
<line x1="1000" y1="100" x2="1100" y2="100" stroke="black" />
<text x="1000" y="90" fill="black" >(9.00 ; 8.00)</text>
<line x1="1000" y1="100" x2="1100" y2="100" stroke="black" />
<text x="1000" y="90" fill="black" >(9.00 ; 8.00)</text>
<line x1="1000" y1="100" x2="1100" y2="100" stroke="black" />
<text x="1000" y="90" fill="black" >(9.00 ; 8.00)</text>
<line x1="1000" y1="100" x2="1100" y2="100" stroke="black" />
<text x="1000" y="90" fill="black" >(9.00 ; 8.00)</text>
<line x1="1000" y1="100" x2="1100" y2="100" stroke="black" />
<text x="1000" y="90" fill="black" >(9.00 ; 8.00)</text>
<line x1="1000" y1="100" x2="1100" y2="100" stroke="black" />
<text x="1000" y="90" fill="black" >(9.00 ; 8.00)</text>
<line x1="1000" y1="100" x2="1100" y2="100" stroke="black" />
<text x="1000" y="90" fill="black" >(9.00 ; 8.00)</text>
<line x1="1000" y1="100" x2="1100" y2="100" stroke="black" />
<text x="1000" y="90" fill="black" >(9.00 ; 8.00)</text>
<circle cx="900" cy="100" r="7" fill="black" fill-opacity="1" />
<circle cx="1000" cy="100" r="7" fill="black" fill-opacity="1" />
<circle cx="1100" cy="100" r="7" fill="black" fill-opacity="1" />
<circle cx="1200" cy="100" r="7" fill="black" fill-opacity="1" />
<circle cx="900" cy="200" r="7" fill="black" fill-opacity="1" />
<circle cx="1000" cy="200" r="7" fill="black" fill-opacity="1" />
<circle cx="1100" cy="200" r="7" fill="black" fill-opacity="1" />
<circle cx="1200" cy="200" r="7" fill="black" fill-opacity="1" />
<circle cx="900" cy="300" r="7" fill="black" fill-opacity="1" />
<circle cx="1000" cy="300" r="7" fill="black" fill-opacity="1" />
<circle cx="1100" cy="300" r="7" fill="black" fill-opacity="1" />
<circle cx="1200" cy="300" r="7" fill="black" fill-opacity="1" />
<circle cx="900" cy="400" r="7" fill="black" fill-opacity="1" />
<circle cx="1000" cy="400" r="7" fill="black" fill-opacity="1" />
<circle cx="1100" cy="400" r="7" fill="black" fill-opacity="1" />
<circle cx="1200" cy="400" r="7" fill="black" fill-opacity="1" />
<line x1="1800" y1="100" x2="1900" y2="100" stroke="black" />
<text x="1800" y="90" fill="black" >(9.00 ; 8.00)</text>
<line x1="1800" y1="100" x2="1900" y2="100" stroke="black" />
<text x="1800" y="90" fill="black" >(9.00 ; 8.00)</text>
<line x1="1800" y1="100" x2="1900" y2="100" stroke="black" />
<text x="1800" y="90" fill="black" >(9.00 ; 8.00)</text>
<line x1="1800" y1="100" x2="1900" y2="100" stroke="black" />
<text x="1800" y="90" fill="black" >(9.00 ; 8.00)</text>
<line x1="1800" y1="100" x2="1900" y2="100" stroke="black" />
<text x="1800" y="90" fill="black" >(9.00 ; 8.00)</text>
<line x1="1800" y1="100" x2="1900" y2="100" stroke="black" />
<text x="1800" y="90" fill="black" >(9.00 ; 8.00)</text>
<line x1="1800" y1="100" x2="1900" y2="100" stroke="black" />
<text x="1800" y="90" fill="black" >(9.00 ; 8.00)</text>
<line x1="1800" y1="100" x2="1900" y2="100" stroke="black" />
<text x="1800" y="90" fill="black" >(9.00 ; 8.00)</text>
<line x1="1800" y1="100" x2="1900" y2="100" stroke="black" />
<text x="1800" y="90" fill="black" >(9.00 ; 8.00)</text>
<line x1="1800" y1="100" x2="1900" y2="100" stroke="black" />
<text x="1800" y="90" fill="black" >(9.00 ; 8.00)</text>
<line x1="1800" y1="100" x2="1900" y2="100" stroke="black" />
<text x="1800" y="90" fill="black" >(9.00 ; 8.00)</text>
<line x1="1800" y1="100" x2="1900" y2="100" stroke="black" />
<text x="1800" y="90" fill="black" >(9.00 ; 8.00)</text>
<line x1="1800" y1="100" x2="1900" y2="100" stroke="black" />
<text x="1800" y="90" fill="black" >(9.00 ; 8.00)</text>
<line x1="1800" y1="100" x2="1900" y2="100" stroke="black" />
<text x="1800" y="90" fill="black" >(9.00 ; 8.00)</text>
<line x1="1800" y1="100" x2="1900" y2="100" stroke="black" />
<text x="1800" y="90" fill="black" >(9.00 ; 8.00)</text>
<circle cx="1700" cy="100" r="7" fill="black" fill-opacity="1" />
<circle cx="1800" cy="100" r="7" fill="black" fill-opacity="1" />
<circle cx="1900" cy="100" r="7" fill="black" fill-opacity="1" />
<circle cx="2000" cy="100" r="7" fill="black" fill-opacity="1" />
<circle cx="1700" cy="200" r="7" fill="black" fill-opacity="1" />
<circle cx="1800" cy="200" r="7" fill="black" fill-opacity="1" />
<circle cx="1900" cy="200" r="7" fill="black" fill-opacity="1" />
<circle cx="2000" cy="200" r="7" fill="black" fill-opacity="1" />
<circle cx="1700" cy="300" r="7" fill="black" fill-opacity="1" />
<circle cx="1800" cy="300" r="7" fill="black" fill-opacity="1" />
<circle cx="1900" cy="300" r="7" fill="black" fill-opacity="1" />
<circle cx="2000" cy="300" r="7" fill="black" fill-opacity="1" />
<circle cx="1700" cy="400" r="7" fill="black" fill-opacity="1" />
<circle cx="1800" cy="400" r="7" fill="black" fill-opacity="1" />
<circle cx="1900" cy="400" r="7" fill="black" fill-opacity="1" />
<circle cx="2000" cy="400" r="7" fill="black" fill-opacity="1" />
<line x1="2600" y1="100" x2="2700" y2="100" stroke="black" />
<text x="2600" y="90" fill="black" >(9.00 ; 8.00)</text>
<line x1="2600" y1="100" x2="2700" y2="100" stroke="black" />
<text x="2600" y="90" fill="black" >(9.00 ; 8.00)</text>
<line x1="2600" y1="100" x2="2700" y2="100" stroke="black" />
<text x="2600" y="90" fill="black" >(9.00 ; 8.00)</text>
<line x1="2600" y1="100" x2="2700" y2="100" stroke="black" />
<text x="2600" y="90" fill="black" >(9.00 ; 8.00)</text>
<line x1="2600" y1="100" x2="2700" y2="100" stroke="black" />
<text x="2600" y="90" fill="black" >(9.00 ; 8.00)</text>
<line x1="2600" y1="100" x2="2700" y2="100" stroke="black" />
<text x="2600" y="90" fill="black" >(9.00 ; 8.00)</text>
<line x1="2600" y1="100" x2="2700" y2="100" stroke="black" />
<text x="2600" y="90" fill="black" >(9.00 ; 8.00)</text>
<line x1="2600" y1="100" x2="2700" y2="100" stroke="black" />
<text x="2600" y="90" fill="black" >(9.00 ; 8.00)</text>
<line x1="2600" y1="100" x2="2700" y2="100" stroke="black" />
<text x="2600" y="90" fill="black" >(9.00 ; 8.00)</text>
<line x1="2600" y1="100" x2="2700" y2="100" stroke="black" />
<text x="2600" y="90" fill="black" >(9.00 ; 8.00)</text>
<line x1="2600" y1="100" x2="2700" y2="100" stroke="black" />
<text x="2600" y="90" fill="black" >(9.00 ; 8.00)</text>
<line x1="2600" y1="100" x2="2700" y2="100" stroke="black" />
<text x="2600" y="90" fill="black" >(9.00 ; 8.00)</text>
<line x1="2600" y1="100" x2="2700" y2="100" stroke="black" />
<text x="2600" y="90" fill="black" >(9.00 ; 8.00)</text>
<line x1="2600" y1="100" x2="2700" y2="100" stroke="black" />
<text x="2600" y="90" fill="black" >(9.00 ; 8.00)</text>
<line x1="2600" y1="100" x2="2700" y2="100" stroke="black" />
<text x="2600" y="90" fill="black" >(9.00 ; 8.00)</text>
<line x1="2600" y1="100" x2="2700" y2="100" stroke="black" />
<text x="2600" y="90" fill="black" >(9.00 ; 8.00)</text>
<circle cx="2500" cy="100" r="7" fill="black" fill-opacity="1" />
<circle cx="2600" cy="100" r="7" fill="black" fill-opacity="1" />
<circle cx="2700" cy="100" r="7" fill="black" fill-opacity="1" />
<circle cx="2800" cy="100" r="7" fill="black" fill-opacity="1" />
<circle cx="2500" cy="200" r="7" fill="black" fill-opacity="1" />
<circle cx="2600" cy="200" r="7" fill="black" fill-opacity="1" />
<circle cx="2700" cy="200" r="7" fill="black" fill-opacity="1" />
<circle cx="2800" cy="200" r="7" fill="black" fill-opacity="1" />
<circle cx="2500" cy="300" r="7" fill="black" fill-opacity="1" />
<circle cx="2600" cy="300" r="7" fill="black" fill-opacity="1" />
<circle cx="2700" cy="300" r="7" fill="black" fill-opacity="1" />
<circle cx="2800" cy="300" r="7" fill="black" fill-opacity="1" />
<circle cx="2500" cy="400" r="7" fill="black" fill-opacity="1" />
<circle cx="2600" cy="400" r="7" fill="black" fill-opacity="1" />
<circle cx="2700" cy="400" r="7" fill="black" fill-opacity="1" />
<circle cx="2800" cy="400" r="7" fill="black" fill-opacity="1" />
<line x1="3400" y1="100" x2="3500" y2="100" stroke="black" />
<text x="3400" y="90" fill="black" >(9.00 ; 8.00)</text>
<line x1="3400" y1="100" x2="3500" y2="100" stroke="black" />
<text x="3400" y="90" fill="black" >(9.00 ; 8.00)</text>
<line x1="3400" y1="100" x2="3500" y2="100" stroke="black" />
<text x="3400" y="90" fill="black" >(9.00 ; 8.00)</text>
<line x1="3400" y1="100" x2="3500" y2="100" stroke="black" />
<text x="3400" y="90" fill="black" >(9.00 ; 8.00)</text>
<line x1="3400" y1="100" x2="3500" y2="100" stroke="black" />
<text x="3400" y="90" fill="black" >(9.00 ; 8.00)</text>
<line x1="3400" y1="100" x2="3500" y2="100" stroke="black" />
<text x="3400" y="90" fill="black" >(9.00 ; 8.00)</text>
<line x1="3400" y1="100" x2="3500" y2="100" stroke="black" />
<text x="3400" y="90" fill="black" >(9.00 ; 8.00)</text>
<line x1="3400" y1="100" x2="3500" y2="100" stroke="black" />
<text x="3400" y="90" fill="black" >(9.00 ; 8.00)</text>
<line x1="3400" y1="100" x2="3500" y2="100" stroke="black" />
<text x="3400" y="90" fill="black" >(9.00 ; 8.00)</text>
<line x1="3400" y1="100" x2="3500" y2="100" stroke="black" />
<text x="3400" y="90" fill="black" >(9.00 ; 8.00)</text>
<line x1="3400" y1="100" x2="3500" y2="100" stroke="black" />
<text x="3400" y="90" fill="black" >(9.00 ; 8.00)</text>
<line x1="3400" y1="100" x2="3500" y2="100" stroke="black" />
<text x="3400" y="90" fill="black" >(9.00 ; 8.00)</text>
<line x1="3400" y1="100" x2="3500" y2="100" stroke="black" />
<text x="3400" y="90" fill="black" >(9.00 ; 8.00)</text>
<line x1="3400" y1="100" x2="3500" y2="100" stroke="black" />
<text x="3400" y="90" fill="black" >(9.00 ; 8.00)</text>
<line x1="3400" y1="100" x2="3500" y2="100" stroke="black" />
<text x="3400" y="90" fill="black" >(9.00 ; 8.00)</text>
<circle cx="3300" cy="100" r="7" fill="black" fill-opacity="1" />
<circle cx="3400" cy="100" r="7" fill="black" fill-opacity="1" />
<circle cx="3500" cy="100" r="7" fill="black" fill-opacity="1" />
<circle cx="3600" cy="100" r="7" fill="black" fill-opacity="1" />
<circle cx="3300" cy="200" r="7" fill="black" fill-opacity="1" />
<circle cx="3400" cy="200" r="7" fill="black" fill-opacity="1" />
<circle cx="3500" cy="200" r="7" fill="black" fill-opacity="1" />
<circle cx="3600" cy="200" r="7" fill="black" fill-opacity="1" />
<circle cx="3300" cy="300" r="7" fill="black" fill-opacity="1" />
<circle cx="3400" cy="300" r="7" fill="black" fill-opacity="1" />
<circle cx="3500" cy="300" r="7" fill="black" fill-opacity="1" />
<circle cx="3600" cy="300" r="7" fill="black" fill-opacity="1" />
<circle cx="3300" cy="400" r="7" fill="black" fill-opacity="1" />
<circle cx="3400" cy="400" r="7" fill="black" fill-opacity="1" />
<circle cx="3500" cy="400" r="7" fill="black" fill-opacity="1" />
<circle cx="3600" cy="400" r="7" fill="black" fill-opacity="1" />
<line x1="4200" y1="100" x2="4300" y2="100" stroke="black" />
<text x="4200" y="90" fill="black" >(9.00 ; 8.00)</text>
<line x1="4200" y1="100" x2="4300" y2="100" stroke="black" />
<text x="4200" y="90" fill="black" >(9.00 ; 8.00)</text>
<line x1="4200" y1="100" x2="4300" y2="100" stroke="black" />
<text x="4200" y="90" fill="black" >(9.00 ; 8.00)</text>
<line x1="4200" y1="100" x2="4300" y2="100" stroke="black" />
<text x="4200" y="90" fill="black" >(9.00 ; 8.00)</text>
<line x1="4200" y1="100" x2="4300" y2="100" stroke="black" />
<text x="4200" y="90" fill="black" >(9.00 ; 8.00)</text>
<line x1="4200" y1="100" x2="4300" y2="100" stroke="black" />
<text x="4200" y="90" fill="black" >(9.00 ; 8.00)</text>
<line x1="4200" y1="100" x2="4300" y2="100" stroke="black" />
<text x="4200" y="90" fill="black" >(9.00 ; 8.00)</text>
<line x1="4200" y1="100" x2="4300" y2="100" stroke="black" />
<text x="4200" y="90" fill="black" >(9.00 ; 8.00)</text>
<line x1="4200" y1="100" x2="4300" y2="100" stroke="black" />
<text x="4200" y="90" fill="black" >(9.00 ; 8.00)</text>
<line x1="4200" y1="100" x2="4300" y2="100" stroke="black" />
<text x="4200" y="90" fill="black" >(9.00 ; 8.00)</text>
<line x1="4200" y1="100" x2="4300" y2="100" stroke="black" />
<text x="4200" y="90" fill="black" >(9.00 ; 8.00)</text>
<line x1="4200" y1="100" x2="4300" y2="100" stroke="black" />
<text x="4200" y="90" fill="black" >(9.00 ; 8.00)</text>
<line x1="4200" y1="100" x2="4300" y2="100" stroke="black" />
<text x="4200" y="90" fill="black" >(9.00 ; 8.00)</text>
<line x1="4200" y1="100" x2="4300" y2="100" stroke="black" />
<text x="4200" y="90" fill="black" >(9.00 ; 8.00)</text>
<line x1="4200" y1="100" x2="4300" y2="100" stroke="black" />
<text x="4200" y="90" fill="black" >(9.00 ; 8.00)</text>
<line x1="4200" y1="100" x2="4300" y2="100" stroke="black" />
<text x="4200" y="90" fill="black" >(9.00 ; 8.00)</text>
<circle cx="4100" cy="100" r="7" fill="black" fill-opacity="1" />
<circle cx="4200" cy="100" r="7" fill="black" fill-opacity="1" />
<circle cx="4300" cy="100" r="7" fill="black" fill-opacity="1" />
<circle cx="4400" cy="100" r="7" fill="black" fill-opacity="1" />
<circle cx="4100" cy="200" r="7" fill="black" fill-opacity="1" />
<circle cx="4200" cy="200" r="7" fill="black" fill-opacity="1" />
<circle cx="4300" cy="200" r="7" fill="black" fill-opacity="1" />
<circle cx="4400" cy="200" r="7" fill="black" fill-opacity="1" />
<circle cx="4100" cy="300" r="7" fill="black" fill-opacity="1" />
<circle cx="4200" cy="300" r="7" fill="black" fill-opacity="1" />
<circle cx="4300" cy="300" r="7" fill="black" fill-opacity="1" />
<circle cx="4400" cy="300" r="7" fill="black" fill-opacity="1" />
<circle cx="4100" cy="400" r="7" fill="black" fill-opacity="1" />
<circle cx="4200" cy="400" r="7" fill="black" fill-opacity="1" />
<circle cx="4300" cy="400" r="7" fill="black" fill-opacity="1" />
<circle cx="4400" cy="400" r="7" fill="black" fill-opacity="1" />
<line x1="5000" y1="100" x2="5100" y2="100" stroke="black" />
<text x="5000" y="90" fill="black" >(9.00 ; 8.00)</text>
<line x1="5000" y1="100" x2="5100" y2="100" stroke="black" />
<text x="5000" y="90" fill="black" >(9.00 ; 8.00)</text>
<line x1="5000" y1="100" x2="5100" y2="100" stroke="black" />
<text x="5000" y="90" fill="black" >(9.00 ; 8.00)</text>
<line x1="5000" y1="100" x2="5100" y2="100" stroke="black" />
<text x="5000" y="90" fill="black" >(9.00 ; 8.00)</text>
<line x1="5000" y1="100" x2="5100" y2="100" stroke="black" />
<text x="5000" y="90" fill="black" >(9.00 ; 8.00)</text>
<line x1="5000" y1="100" x2="5100" y2="100" stroke="black" />
<text x="5000" y="90" fill="black" >(9.00 ; 8.00)</text>
<line x1="5000" y1="100" x2="5100" y2="100" stroke="black" />
<text x="5000" y="90" fill="black" >(9.00 ; 8.00)</text>
<line x1="5000" y1="100" x2="5100" y2="100" stroke="black" />
<text x="5000" y="90" fill="black" >(9.00 ; 8.00)</text>
<line x1="5000" y1="100" x2="5100" y2="100" stroke="black" />
<text x="5000" y="90" fill="black" >(9.00 ; 8.00)</text>
<line x1="5000" y1="100" x2="5100" y2="100" stroke="black" />
<text x="5000" y="90" fill="black" >(9.00 ; 8.00)</text>
<line x1="5000" y1="100" x2="5100" y2="100" stroke="black" />
<text x="5000" y="90" fill="black" >(9.00 ; 8.00)</text>
<line x1="5000" y1="100" x2="5100" y2="100" stroke="black" />
<text x="5000" y="90" fill="black" >(9.00 ; 8.00)</text>
<line x1="5000" y1="100" x2="5100" y2="100" stroke="black" />
<text x="5000" y="90" fill="black" >(9.00 ; 8.00)</text>
<line x1="5000" y1="100" x2="5100" y2="100" stroke="black" />
<text x="5000" y="90" fill="black" >(9.00 ; 8.00)</text>
<line x1="5000" y1="100" x2="5100" y2="100" stroke="black" />
<text x="5000" y="90" fill="black" >(9.00 ; 8.00)</text>
<circle cx="4900" cy="100" r="7" fill="black" fill-opacity="1" />
<circle cx="5000" cy="100" r="7" fill="black" fill-opacity="1" />
<circle cx="5100" cy="100" r="7" fill="black" fill-opacity="1" />
<circle cx="5200" cy="100" r="7" fill="black" fill-opacity="1" />
<circle cx="4900" cy="200" r="7" fill="black" fill-opacity="1" />
<circle cx="5000" cy="200" r="7" fill="black" fill-opacity="1" />
<circle cx="5100" cy="200" r="7" fill="black" fill-opacity="1" />
<circle cx="5200" cy="200" r="7" fill="black" fill-opacity="1" />
<circle cx="4900" cy="300" r="7" fill="black" fill-opacity="1" />
<circle cx="5000" cy="300" r="7" fill="black" fill-opacity="1" />
<circle cx="5100" cy="300" r="7" fill="black" fill-opacity="1" />
<circle cx="5200" cy="300" r="7" fill="black" fill-opacity="1" />
<circle cx="4900" cy="400" r="7" fill="black" fill-opacity="1" />
<circle cx="5000" cy="400" r="7" fill="black" fill-opacity="1" />
<circle cx="5100" cy="400" r="7" fill="black" fill-opacity="1" />
<circle cx="5200" cy="400" r="7" fill="black" fill-opacity="1" />
<line x1="5800" y1="100" x2="5900" y2="100" stroke="black" />
<text x="5800" y="90" fill="black" >(9.00 ; 8.00)</text>
<line x1="5800" y1="100" x2="5900" y2="100" stroke="black" />
<text x="5800" y="90" fill="black" >(9.00 ; 8.00)</text>
<line x1="5800" y1="100" x2="5900" y2="100" stroke="black" />
<text x="5800" y="90" fill="black" >(9.00 ; 8.00)</text>
<line x1="5800" y1="100" x2="5900" y2="100" stroke="black" />
<text x="5800" y="90" fill="black" >(9.00 ; 8.00)</text>
<line x1="5800" y1="100" x2="5900" y2="100" stroke="black" />
<text x="5800" y="90" fill="black" >(9.00 ; 8.00)</text>
<line x1="5800" y1="100" x2="5900" y2="100" stroke="black" />
<text x="5800" y="90" fill="black" >(9.00 ; 8.00)</text>
<line x1="5800" y1="100" x2="5900" y2="100" stroke="black" />
<text x="5800" y="90" fill="black" >(9.00 ; 8.00)</text>
<line x1="5800" y1="100" x2="5900" y2="100" stroke="black" />
<text x="5800" y="90" fill="black" >(9.00 ; 8.00)</text>
<line x1="5800" y1="100" x2="5900" y2="100" stroke="black" />
<text x="5800" y="90" fill="black" >(9.00 ; 8.00)</text>
<line x1="5800" y1="100" x2="5900" y2="100" stroke="black" />
<text x="5800" y="90" fill="black" >(9.00 ; 8.00)</text>
<line x1="5800" y1="100" x2="5900" y2="100" stroke="black" />
<text x="5800" y="90" fill="black" >(9.00 ; 8.00)</text>
<line x1="5800" y1="100" x2="5900" y2="100" stroke="black" />
<text x="5800" y="90" fill="black" >(9.00 ; 8.00)</text>
<line x1="5800" y1="100" x2="5900" y2="100" stroke="black" />
<text x="5800" y="90" fill="black" >(9.00 ; 8.00)</text>
<line x1="5800" y1="100" x2="5900" y2="100" stroke="black" />
<text x="5800" y="90" fill="black" >(9.00 ; 8.00)</text>
<line x1="5800" y1="100" x2="5900" y2="100" stroke="black" />
<text x="5800" y="90" fill="black" >(9.00 ; 8.00)</text>
<line x1="5800" y1="100" x2="5900" y2="100" stroke="black" />
<text x="5800" y="90" fill="black" >(9.00 ; 8.00)</text>
<circle cx="5700" cy="100" r="7" fill="black" fill-opacity="1" />
<circle cx="5800" cy="100" r="7" fill="black" fill-opacity="1" />
<circle cx="5900" cy="100" r="7" fill="black" fill-opacity="1" />
<circle cx="6000" cy="100" r="7" fill="black" fill-opacity="1" />
<circle cx="5700" cy="200" r="7" fill="black" fill-opacity="1" />
<circle cx="5800" cy="200" r="7" fill="black" fill-opacity="1" />
<circle cx="5900" cy="200" r="7" fill="black" fill-opacity="1" />
<circle cx="6000" cy="200" r="7" fill="black" fill-opacity="1" />
<circle cx="5700" cy="300" r="7" fill="black" fill-opacity="1" />
<circle cx="5800" cy="300" r="7" fill="black" fill-opacity="1" />
<circle cx="5900" cy="300" r="7" fill="black" fill-opacity="1" />
<circle cx="6000" cy="300" r="7" fill="black" fill-opacity="1" />
<circle cx="5700" cy="400" r="7" fill="black" fill-opacity="1" />
<circle cx="5800" cy="400" r="7" fill="black" fill-opacity="1" />
<circle cx="5900" cy="400" r="7" fill="black" fill-opacity="1" />
<circle cx="6000" cy="400" r="7" fill="black" fill-opacity="1" />
<line x1="200" y1="900" x2="300" y2="900" stroke="black" />
<text x="200" y="890" fill="black" >(9.00 ; 8.00)</text>
<line x1="200" y1="900" x2="300" y2="900" stroke="black" />
<text x="200" y="890" fill="black" >(9.00 ; 8.00)</text>
<line x1="200" y1="900" x2="300" y2="900" stroke="black" />
<text x="200" y="890" fill="black" >(9.00 ; 8.00)</text>
<line x1="200" y1="900" x2="300" y2="900" stroke="black" />
<text x="200" y="890" fill="black" >(9.00 ; 8.00)</text>
<line x1="200" y1="900" x2="300" y2="900" stroke="black" />
<text x="200" y="890" fill="black" >(9.00 ; 8.00)</text>
<line x1="200" y1="900" x2="300" y2="900" stroke="black" />
<text x="200" y="890" fill="black" >(9.00 ; 8.00)</text>
<line x1="200" y1="900" x2="300" y2="900" stroke="black" />
<text x="200" y="890" fill="black" >(9.00 ; 8.00)</text>
<line x1="200" y1="900" x2="300" y2="900" stroke="black" />
<text x="200" y="890" fill="black" >(9.00 ; 8.00)</text>
<line x1="200" y1="900" x2="300" y2="900" stroke="black" />
<text x="200" y="890" fill="black" >(9.00 ; 8.00)</text>
<line x1="200" y1="900" x2="300" y2="900" stroke="black" />
<text x="200" y="890" fill="black" >(9.00 ; 8.00)</text>
<line x1="200" y1="900" x2="300" y2="900" stroke="black" />
<text x="200" y="890" fill="black" >(9.00 ; 8.00)</text>
<line x1="200" y1="900" x2="300" y2="900" stroke="black" />
<text x="200" y="890" fill="black" >(9.00 ; 8.00)</text>
<line x1="200" y1="900" x2="300" y2="900" stroke="black" />
<text x="200" y="890" fill="black" >(9.00 ; 8.00)</text>
<line x1="200" y1="900" x2="300" y2="900" stroke="black" />
<text x="200" y="890" fill="black" >(9.00 ; 8.00)</text>
<line x1="200" y1="900" x2="300" y2="900" stroke="black" />
<text x="200" y="890" fill="black" >(9.00 ; 8.00)</text>
<circle cx="100" cy="900" r="7" fill="black" fill-opacity="1" />
<circle cx="200" cy="900" r="7" fill="black" fill-opacity="1" />
<circle cx="300" cy="900" r="7" fill="black" fill-opacity="1" />
<circle cx="400" cy="900" r="7" fill="black" fill-opacity="1" />
<circle cx="100" cy="1000" r="7" fill="black" fill-opacity="1" />
<circle cx="200" cy="1000" r="7" fill="black" fill-opacity="1" />
<circle cx="300" cy="1000" r="7" fill="black" fill-opacity="1" />
<circle cx="400" cy="1000" r="7" fill="black" fill-opacity="1" />
<circle cx="100" cy="1100" r="7" fill="black" fill-opacity="1" />
<circle cx="200" cy="1100" r="7" fill="black" fill-opacity="1" />
<circle cx="300" cy="1100" r="7" fill="black" fill-opacity="1" />
<circle cx="400" cy="1100" r="7" fill="black" fill-opacity="1" />
<circle cx="100" cy="1200" r="7" fill="black" fill-opacity="1" />
<circle cx="200" cy="1200" r="7" fill="black" fill-opacity="1" />
<circle cx="300" cy="1200" r="7" fill="black" fill-opacity="1" />
<circle cx="400" cy="1200" r="7" fill="black" fill-opacity="1" />
<line x1="1000" y1="900" x2="1100" y2="900" stroke="black" />
<text x="1000" y="890" fill="black" >(9.00 ; 8.00)</text>
<line x1="1000" y1="900" x2="1100" y2="900" stroke="black" />
<text x="1000" y="890" fill="black" >(9.00 ; 8.00)</text>
<line x1="1000" y1="900" x2="1100" y2="900" stroke="black" />
<text x="1000" y="890" fill="black" >(9.00 ; 8.00)</text>
<line x1="1000" y1="900" x2="1100" y2="900" stroke="black" />
<text x="1000" y="890" fill="black" >(9.00 ; 8.00)</text>
<line x1="1000" y1="900" x2="1100" y2="900" stroke="black" />
<text x="1000" y="890" fill="black" >(9.00 ; 8.00)</text>
<line x1="1000" y1="900" x2="1100" y2="900" stroke="black" />
<text x="1000" y="890" fill="black" >(9.00 ; 8.00)</text>
<line x1="1000" y1="900" x2="1100" y2="900" stroke="black" />
<text x="1000" y="890" fill="black" >(9.00 ; 8.00)</text>
<line x1="1000" y1="900" x2="1100" y2="900" stroke="black" />
<text x="1000" y="890" fill="black" >(9.00 ; 8.00)</text>
<line x1="1000" y1="900" x2="1100" y2="900" stroke="black" />
<text x="1000" y="890" fill="black" >(9.00 ; 8.00)</text>
<line x1="1000" y1="900" x2="1100" y2="900" stroke="black" />
<text x="1000" y="890" fill="black" >(9.00 ; 8.00)</text>
<line x1="1000" y1="900" x2="1100" y2="900" stroke="black" />
<text x="1000" y="890" fill="black" >(9.00 ; 8.00)</text>
<line x1="1000" y1="900" x2="1100" y2="900" stroke="black" />
<text x="1000" y="890" fill="black" >(9.00 ; 8.00)</text>
<line x1="1000" y1="900" x2="1100" y2="900" stroke="black" />
<text x="1000" y="890" fill="black" >(9.00 ; 8.00)</text>
<line x1="1000" y1="900" x2="1100" y2="900" stroke="black" />
<text x="1000" y="890" fill="black" >(9.00 ; 8.00)</text>
<line x1="1000" y1="900" x2="1100" y2="900" stroke="black" />
<text x="1000" y="890" fill="black" >(9.00 ; 8.00)</text>
<line x1="1000" y1="900" x2="1100" y2="900" stroke="black" />
<text x="1000" y="890" fill="black" >(9.00 ; 8.00)</text>
<circle cx="900" cy="900" r="7" fill="black" fill-opacity="1" />
<circle cx="1000" cy="900" r="7" fill="black" fill-opacity="1" />
<circle cx="1100" cy="900" r="7" fill="black" fill-opacity="1" />
<circle cx="1200" cy="900" r="7" fill="black" fill-opacity="1" />
<circle cx="900" cy="1000" r="7" fill="black" fill-opacity="1" />
<circle cx="1000" cy="1000" r="7" fill="black" fill-opacity="1" />
<circle cx="1100" cy="1000" r="7" fill="black" fill-opacity="1" />
<circle cx="1200" cy="1000" r="7" fill="black" fill-opacity="1" />
<circle cx="900" cy="1100" r="7" fill="black" fill-opacity="1" />
<circle cx="1000" cy="1100" r="7" fill="black" fill-opacity="1" />
<circle cx="1100" cy="1100" r="7" fill="black" fill-opacity="1" />
<circle cx="1200" cy="1100" r="7" fill="black" fill-opacity="1" />
<circle cx="900" cy="1200" r="7" fill="black" fill-opacity="1" />
<circle cx="1000" cy="1200" r="7" fill="black" fill-opacity="1" />
<circle cx="1100" cy="1200" r="7" fill="black" fill-opacity="1" />
<circle cx="1200" cy="1200" r="7" fill="black" fill-opacity="1" />
<line x1="1800" y1="900" x2="1900" y2="900" stroke="black" />
<text x="1800" y="890" fill="black" >(9.00 ; 8.00)</text>
<line x1="1800" y1="900" x2="1900" y2="900" stroke="black" />
<text x="1800" y="890" fill="black" >(9.00 ; 8.00)</text>
<line x1="1800" y1="900" x2="1900" y2="900" stroke="black" />
<text x="1800" y="890" fill="black" >(9.00 ; 8.00)</text>
<line x1="1800" y1="900" x2="1900" y2="900" stroke="black" />
<text x="1800" y="890" fill="black" >(9.00 ; 8.00)</text>
<line x1="1800" y1="900" x2="1900" y2="900" stroke="black" />
<text x="1800" y="890" fill="black" >(9.00 ; 8.00)</text>
<line x1="1800" y1="900" x2="1900" y2="900" stroke="black" />
<text x="1800" y="890" fill="black" >(9.00 ; 8.00)</text>
<line x1="1800" y1="900" x2="1900" y2="900" stroke="black" />
<text x="1800" y="890" fill="black" >(9.00 ; 8.00)</text>
<line x1="1800" y1="900" x2="1900" y2="900" stroke="black" />
<text x="1800" y="890" fill="black" >(9.00 ; 8.00)</text>
<line x1="1800" y1="900" x2="1900" y2="900" stroke="black" />
<text x="1800" y="890" fill="black" >(9.00 ; 8.00)</text>
<line x1="1800" y1="900" x2="1900" y2="900" stroke="black" />
<text x="1800" y="890" fill="black" >(9.00 ; 8.00)</text>
<line x1="1800" y1="900" x2="1900" y2="900" stroke="black" />
<text x="1800" y="890" fill="black" >(9.00 ; 8.00)</text>
<line x1="1800" y1="900" x2="1900" y2="900" stroke="black" />
<text x="1800" y="890" fill="black" >(9.00 ; 8.00)</text>
<line x1="1800" y1="900" x2="1900" y2="900" stroke="black" />
<text x="1800" y="890" fill="black" >(9.00 ; 8.00)</text>
<line x1="1800" y1="900" x2="1900" y2="900" stroke="black" />
<text x="1800" y="890" fill="black" >(9.00 ; 8.00)</text>
<line x1="1800" y1="900" x2="1900" y2="900" stroke="black" />
<text x="1800" y="890" fill="black" >(9.00 ; 8.00)</text>
<circle cx="1700" cy="900" r="7" fill="black" fill-opacity="1" />
<circle cx="1800" cy="900" r="7" fill="black" fill-opacity="1" />
<circle cx="1900" cy="900" r="7" fill="black" fill-opacity="1" />
<circle cx="2000" cy="900" r="7" fill="black" fill-opacity="1" />
<circle cx="1700" cy="1000" r="7" fill="black" fill-opacity="1" />
<circle cx="1800" cy="1000" r="7" fill="black" fill-opacity="1" />
<circle cx="1900" cy="1000" r="7" fill="black" fill-opacity="1" />
<circle cx="2000" cy="1000" r="7" fill="black" fill-opacity="1" />
<circle cx="1700" cy="1100" r="7" fill="black" fill-opacity="1" />
<circle cx="1800" cy="1100" r="7" fill="black" fill-opacity="1" />
<circle cx="1900" cy="1100" r="7" fill="black" fill-opacity="1" />
<circle cx="2000" cy="1100" r="7" fill="black" fill-opacity="1" />
<circle cx="1700" cy="1200" r="7" fill="black" fill-opacity="1" />
<circle cx="1800" cy="1200" r="7" fill="black" fill-opacity="1" />
<circle cx="1900" cy="1200" r="7" fill="black" fill-opacity="1" />
<circle cx="2000" cy="1200" r="7" fill="black" fill-opacity="1" />
<line x1="2600" y1="900" x2="2700" y2="900" stroke="black" />
<text x="2600" y="890" fill="black" >(9.00 ; 8.00)</text>
<line x1="2600" y1="900" x2="2700" y2="900" stroke="black" />
<text x="2600" y="890" fill="black" >(9.00 ; 8.00)</text>
<line x1="2600" y1="900" x2="2700" y2="900" stroke="black" />
<text x="2600" y="890" fill="black" >(9.00 ; 8.00)</text>
<line x1="2600" y1="900" x2="2700" y2="900" stroke="black" />
<text x="2600" y="890" fill="black" >(9.00 ; 8.00)</text>
<line x1="2600" y1="900" x2="2700" y2="900" stroke="black" />
<text x="2600" y="890" fill="black" >(9.00 ; 8.00)</text>
<line x1="2600" y1="900" x2="2700" y2="900" stroke="black" />
<text x="2600" y="890" fill="black" >(9.00 ; 8.00)</text>
<line x1="2600" y1="900" x2="2700" y2="900" stroke="black" />
<text x="2600" y="890" fill="black" >(9.00 ; 8.00)</text>
<line x1="2600" y1="900" x2="2700" y2="900" stroke="black" />
<text x="2600" y="890" fill="black" >(9.00 ; 8.00)</text>
<line x1="2600" y1="900" x2="2700" y2="900" stroke="black" />
<text x="2600" y="890" fill="black" >(9.00 ; 8.00)</text>
<line x1="2600" y1="900" x2="2700" y2="900" stroke="black" />
<text x="2600" y="890" fill="black" >(9.00 ; 8.00)</text>
<line x1="2600" y1="900" x2="2700" y2="900" stroke="black" />
<text x="2600" y="890" fill="black" >(9.00 ; 8.00)</text>
<line x1="2600" y1="900" x2="2700" y2="900" stroke="black" />
<text x="2600" y="890" fill="black" >(9.00 ; 8.00)</text>
<line x1="2600" y1="900" x2="2700" y2="900" stroke="black" />
<text x="2600" y="890" fill="black" >(9.00 ; 8.00)</text>
<line x1="2600" y1="900" x2="2700" y2="900" stroke="black" />
<text x="2600" y="890" fill="black" >(9.00 ; 8.00)</text>
<line x1="2600" y1="900" x2="2700" y2="900" stroke="black" />
<text x="2600" y="890" fill="black" >(9.00 ; 8.00)</text>
<line x1="2600" y1="900" x2="2700" y2="900" stroke="black" />
<text x="2600" y="890" fill="black" >(9.00 ; 8.00)</text>
<circle cx="2500" cy="900" r="7" fill="black" fill-opacity="1" />
<circle cx="2600" cy="900" r="7" fill="black" fill-opacity="1" />
<circle cx="2700" cy="900" r="7" fill="black" fill-opacity="1" />
<circle cx="2800" cy="900" r="7" fill="black" fill-opacity="1" />
<circle cx="2500" cy="1000" r="7" fill="black" fill-opacity="1" />
<circle cx="2600" cy="1000" r="7" fill="black" fill-opacity="1" />
<circle cx="2700" cy="1000" r="7" fill="black" fill-opacity="1" />
<circle cx="2800" cy="1000" r="7" fill="black" fill-opacity="1" />
<circle cx="2500" cy="1100" r="7" fill="black" fill-opacity="1" />
<circle cx="2600" cy="1100" r="7" fill="black" fill-opacity="1" />
<circle cx="2700" cy="1100" r="7" fill="black" fill-opacity="1" />
<circle cx="2800" cy="1100" r="7" fill="black" fill-opacity="1" />
<circle cx="2500" cy="1200" r="7" fill="black" fill-opacity="1" />
<circle cx="2600" cy="1200" r="7" fill="black" fill-opacity="1" />
<circle cx="2700" cy="1200" r="7" fill="black" fill-opacity="1" />
<circle cx="2800" cy="1200" r="7" fill="black" fill-opacity="1" />
<line x1="3400" y1="900" x2="3500" y2="900" stroke="black" />
<text x="3400" y="890" fill="black" >(9.00 ; 8.00)</text>
<line x1="3400" y1="900" x2="3500" y2="900" stroke="black" />
<text x="3400" y="890" fill="black" >(9.00 ; 8.00)</text>
<line x1="3400" y1="900" x2="3500" y2="900" stroke="black" />
<text x="3400" y="890" fill="black" >(9.00 ; 8.00)</text>
<line x1="3400" y1="900" x2="3500" y2="900" stroke="black" />
<text x="3400" y="890" fill="black" >(9.00 ; 8.00)</text>
<line x1="3400" y1="900" x2="3500" y2="900" stroke="black" />
<text x="3400" y="890" fill="black" >(9.00 ; 8.00)</text>
<line x1="3400" y1="900" x2="3500" y2="900" stroke="black" />
<text x="3400" y="890" fill="black" >(9.00 ; 8.00)</text>
<line x1="3400" y1="900" x2="3500" y2="900" stroke="black" />
<text x="3400" y="890" fill="black" >(9.00 ; 8.00)</text>
<line x1="3400" y1="900" x2="3500" y2="900" stroke="black" />
<text x="3400" y="890" fill="black" >(9.00 ; 8.00)</text>
<line x1="3400" y1="900" x2="3500" y2="900" stroke="black" />
<text x="3400" y="890" fill="black" >(9.00 ; 8.00)</text>
<line x1="3400" y1="900" x2="3500" y2="900" stroke="black" />
<text x="3400" y="890" fill="black" >(9.00 ; 8.00)</text>
<line x1="3400" y1="900" x2="3500" y2="900" stroke="black" />
<text x="3400" y="890" fill="black" >(9.00 ; 8.00)</text>
<line x1="3400" y1="900" x2="3500" y2="900" stroke="black" />
<text x="3400" y="890" fill="black" >(9.00 ; 8.00)</text>
<line x1="3400" y1="900" x2="3500" y2="900" stroke="black" />
<text x="3400" y="890" fill="black" >(9.00 ; 8.00)</text>
<line x1="3400" y1="900" x2="3500" y2="900" stroke="black" />
<text x="3400" y="890" fill="black" >(9.00 ; 8.00)</text>
<line x1="3400" y1="900" x2="3500" y2="900" stroke="black" />
<text x="3400" y="890" fill="black" >(9.00 ; 8.00)</text>
<circle cx="3300" cy="900" r="7" fill="black" fill-opacity="1" />
<circle cx="3400" cy="900" r="7" fill="black" fill-opacity="1" />
<circle cx="3500" cy="900" r="7" fill="black" fill-opacity="1" />
<circle cx="3600" cy="900" r="7" fill="black" fill-opacity="1" />
<circle cx="3300" cy="1000" r="7" fill="black" fill-opacity="1" />
<circle cx="3400" cy="1000" r="7" fill="black" fill-opacity="1" />
<circle cx="3500" cy="1000" r="7" fill="black" fill-opacity="1" />
<circle cx="3600" cy="1000" r="7" fill="black" fill-opacity="1" />
<circle cx="3300" cy="1100" r="7" fill="black" fill-opacity="1" />
<circle cx="3400" cy="1100" r="7" fill="black" fill-opacity="1" />
<circle cx="3500" cy="1100" r="7" fill="black" fill-opacity="1" />
<circle cx="3600" cy="1100" r="7" fill="black" fill-opacity="1" />
<circle cx="3300" cy="1200" r="7" fill="black" fill-opacity="1" />
<circle cx="3400" cy="1200" r="7" fill="black" fill-opacity="1" />
<circle cx="3500" cy="1200" r="7" fill="black" fill-opacity="1" />
<circle cx="3600" cy="1200" r="7" fill="black" fill-opacity="1" />
<line x1="4200" y1="900" x2="4300" y2="900" stroke="black" />
<text x="4200" y="890" fill="black" >(9.00 ; 8.00)</text>
<line x1="4200" y1="900" x2="4300" y2="900" stroke="black" />
<text x="4200" y="890" fill="black" >(9.00 ; 8.00)</text>
<line x1="4200" y1="900" x2="4300" y2="900" stroke="black" />
<text x="4200" y="890" fill="black" >(9.00 ; 8.00)</text>
<line x1="4200" y1="900" x2="4300" y2="900" stroke="black" />
<text x="4200" y="890" fill="black" >(9.00 ; 8.00)</text>
<line x1="4200" y1="900" x2="4300" y2="900" stroke="black" />
<text x="4200" y="890" fill="black" >(9.00 ; 8.00)</text>
<line x1="4200" y1="900" x2="4300" y2="900" stroke="black" />
<text x="4200" y="890" fill="black" >(9.00 ; 8.00)</text>
<line x1="4200" y1="900" x2="4300" y2="900" stroke="black" />
<text x="4200" y="890" fill="black" >(9.00 ; 8.00)</text>
<line x1="4200" y1="900" x2="4300" y2="900" stroke="black" />
<text x="4200" y="890" fill="black" >(9.00 ; 8.00)</text>
<line x1="4200" y1="900" x2="4300" y2="900" stroke="black" />
<text x="4200" y="890" fill="black" >(9.00 ; 8.00)</text>
<line x1="4200" y1="900" x2="4300" y2="900" stroke="black" />
<text x="4200" y="890" fill="black" >(9.00 ; 8.00)</text>
<line x1="4200" y1="900" x2="4300" y2="900" stroke="black" />
<text x="4200" y="890" fill="black" >(9.00 ; 8.00)</text>
<line x1="4200" y1="900" x2="4300" y2="900" stroke="black" />
<text x="4200" y="890" fill="black" >(9.00 ; 8.00)</text>
<line x1="4200" y1="900" x2="4300" y2="900" stroke="black" />
<text x="4200" y="890" fill="black" >(9.00 ; 8.00)</text>
<line x1="4200" y1="900" x2="4300" y2="900" stroke="black" />
<text x="4200" y="890" fill="black" >(9.00 ; 8.00)</text>
<line x1="4200" y1="900" x2="4300" y2="900" stroke="black" />
<text x="4200" y="890" fill="black" >(9.00 ; 8.00)</text>
<line x1="4200" y1="900" x2="4300" y2="900" stroke="black" />
<text x="4200" y="890" fill="black" >(9.00 ; 8.00)</text>
<circle cx="4100" cy="900" r="7" fill="black" fill-opacity="1" />
<circle cx="4200" cy="900" r="7" fill="black" fill-opacity="1" />
<circle cx="4300" cy="900" r="7" fill="black" fill-opacity="1" />
<circle cx="4400" cy="900" r="7" fill="black" fill-opacity="1" />
<circle cx="4100" cy="1000" r="7" fill="black" fill-opacity="1" />
<circle cx="4200" cy="1000" r="7" fill="black" fill-opacity="1" />
<circle cx="4300" cy="1000" r="7" fill="black" fill-opacity="1" />
<circle cx="4400" cy="1000" r="7" fill="black" fill-opacity="1" />
<circle cx="4100" cy="1100" r="7" fill="black" fill-opacity="1" />
<circle cx="4200" cy="1100" r="7" fill="black" fill-opacity="1" />
<circle cx="4300" cy="1100" r="7" fill="black" fill-opacity="1" />
<circle cx="4400" cy="1100" r="7" fill="black" fill-opacity="1" />
<circle cx="4100" cy="1200" r="7" fill="black" fill-opacity="1" />
<circle cx="4200" cy="1200" r="7" fill="black" fill-opacity="1" />
<circle cx="4300" cy="1200" r="7" fill="black" fill-opacity="1" />
<circle cx="4400" cy="1200" r="7" fill="black" fill-opacity="1" />
<line x1="5000" y1="900" x2="5100" y2="900" stroke="black" />
<text x="5000" y="890" fill="black" >(9.00 ; 8.00)</text>
<line x1="5000" y1="900" x2="5100" y2="900" stroke="black" />
<text x="5000" y="890" fill="black" >(9.00 ; 8.00)</text>
<line x1="5000" y1="900" x2="5100" y2="900" stroke="black" />
<text x="5000" y="890" fill="black" >(9.00 ; 8.00)</text>
<line x1="5000" y1="900" x2="5100" y2="900" stroke="black" />
<text x="5000" y="890" fill="black" >(9.00 ; 8.00)</text>
<line x1="5000" y1="900" x2="5100" y2="900" stroke="black" />
<text x="5000" y="890" fill="black" >(9.00 ; 8.00)</text>
<line x1="5000" y1="900" x2="5100" y2="900" stroke="black" />
<text x="5000" y="890" fill="black" >(9.00 ; 8.00)</text>
<line x1="5000" y1="900" x2="5100" y2="900" stroke="black" />
<text x="5000" y="890" fill="black" >(9.00 ; 8.00)</text>
<line x1="5000" y1="900" x2="5100" y2="900" stroke="black" />
<text x="5000" y="890" fill="black" >(9.00 ; 8.00)</text>
<line x1="5000" y1="900" x2="5100" y2="900" stroke="black" />
<text x="5000" y="890" fill="black" >(9.00 ; 8.00)</text>
<line x1="5000" y1="900" x2="5100" y2="900" stroke="black" />
<text x="5000" y="890" fill="black" >(9.00 ; 8.00)</text>
<line x1="5000" y1="900" x2="5100" y2="900" stroke="black" />
<text x="5000" y="890" fill="black" >(9.00 ; 8.00)</text>
<line x1="5000" y1="900" x2="5100" y2="900" stroke="black" />
<text x="5000" y="890" fill="black" >(9.00 ; 8.00)</text>
<line x1="5000" y1="900" x2="5100" y2="900" stroke="black" />
<text x="5000" y="890" fill="black" >(9.00 ; 8.00)</text>
<line x1="5000" y1="900" x2="5100" y2="900" stroke="black" />
<text x="5000" y="890" fill="black" >(9.00 ; 8.00)</text>
<line x1="5000" y1="900" x2="5100" y2="900" stroke="black" />
<text x="5000" y="890" fill="black" >(9.00 ; 8.00)</text>
<circle cx="4900" cy="900" r="7" fill="black" fill-opacity="1" />
<circle cx="5000" cy="900" r="7" fill="black" fill-opacity="1" />
<circle cx="5100" cy="900" r="7" fill="black" fill-opacity="1" />
<circle cx="5200" cy="900" r="7" fill="black" fill-opacity="1" />
<circle cx="4900" cy="1000" r="7" fill="black" fill-opacity="1" />
<circle cx="5000" cy="1000" r="7" fill="black" fill-opacity="1" />
<circle cx="5100" cy="1000" r="7" fill="black" fill-opacity="1" />
<circle cx="5200" cy="1000" r="7" fill="black" fill-opacity="1" />
<circle cx="4900" cy="1100" r="7" fill="black" fill-opacity="1" />
<circle cx="5000" cy="1100" r="7" fill="black" fill-opacity="1" />
<circle cx="5100" cy="1100" r="7" fill="black" fill-opacity="1" />
<circle cx="5200" cy="1100" r="7" fill="black" fill-opacity="1" />
<circle cx="4900" cy="1200" r="7" fill="black" fill-opacity="1" />
<circle cx="5000" cy="1200" r="7" fill="black" fill-opacity="1" />
<circle cx="5100" cy="1200" r="7" fill="black" fill-opacity="1" />
<circle cx="5200" cy="1200" r="7" fill="black" fill-opacity="1" />
<line x1="5800" y1="900" x2="5900" y2="900" stroke="black" />
<text x="5800" y="890" fill="black" >(9.00 ; 8.00)</text>
<line x1="5800" y1="900" x2="5900" y2="900" stroke="black" />
<text x="5800" y="890" fill="black" >(9.00 ; 8.00)</text>
<line x1="5800" y1="900" x2="5900" y2="900" stroke="black" />
<text x="5800" y="890" fill="black" >(9.00 ; 8.00)</text>
<line x1="5800" y1="900" x2="5900" y2="900" stroke="black" />
<text x="5800" y="890" fill="black" >(9.00 ; 8.00)</text>
<line x1="5800" y1="900" x2="5900" y2="900" stroke="black" />
<text x="5800" y="890" fill="black" >(9.00 ; 8.00)</text>
<line x1="5800" y1="900" x2="5900" y2="900" stroke="black" />
<text x="5800" y="890" fill="black" >(9.00 ; 8.00)</text>
<line x1="5800" y1="900" x2="5900" y2="900" stroke="black" />
<text x="5800" y="890" fill="black" >(9.00 ; 8.00)</text>
<line x1="5800" y1="900" x2="5900" y2="900" stroke="black" />
<text x="5800" y="890" fill="black" >(9.00 ; 8.00)</text>
<line x1="5800" y1="900" x2="5900" y2="900" stroke="black" />
<text x="5800" y="890" fill="black" >(9.00 ; 8.00)</text>
<line x1="5800" y1="900" x2="5900" y2="900" stroke="black" />
<text x="5800" y="890" fill="black" >(9.00 ; 8.00)</text>
<line x1="5800" y1="900" x2="5900" y2="900" stroke="black" />
<text x="5800" y="890" fill="black" >(9.00 ; 8.00)</text>
<line x1="5800" y1="900" x2="5900" y2="900" stroke="black" />
<text x="5800" y="890" fill="black" >(9.00 ; 8.00)</text>
<line x1="5800" y1="900" x2="5900" y2="900" stroke="black" />
<text x="5800" y="890" fill="black" >(9.00 ; 8.00)</text>
<line x1="5800" y1="900" x2="5900" y2="900" stroke="black" />
<text x="5800" y="890" fill="black" >(9.00 ; 8.00)</text>
<line x1="5800" y1="900" x2="5900" y2="900" stroke="black" />
<text x="5800" y="890" fill="black" >(9.00 ; 8.00)</text>
<line x1="5800" y1="900" x2="5900" y2="900" stroke="black" />
<text x="5800" y="890" fill="black" >(9.00 ; 8.00)</text>
<circle cx="5700" cy="900" r="7" fill="black" fill-opacity="1" />
<circle cx="5800" cy="900" r="7" fill="black" fill-opacity="1" />
<circle cx="5900" cy="900" r="7" fill="black" fill-opacity="1" />
<circle cx="6000" cy="900" r="7" fill="black" fill-opacity="1" />
<circle cx="5700" cy="1000" r="7" fill="black" fill-opacity="1" />
<circle cx="5800" cy="1000" r="7" fill="black" fill-opacity="1" />
<circle cx="5900" cy="1000" r="7" fill="black" fill-opacity="1" />
<circle cx="6000" cy="1000" r="7" fill="black" fill-opacity="1" />
<circle cx="5700" cy="1100" r="7" fill="black" fill-opacity="1" />
<circle cx="5800" cy="1100" r="7" fill="black" fill-opacity="1" />
<circle cx="5900" cy="1100" r="7" fill="black" fill-opacity="1" />
<circle cx="6000" cy="1100" r="7" fill="black" fill-opacity="1" />
<circle cx="5700" cy="1200" r="7" fill="black" fill-opacity="1" />
<circle cx="5800" cy="1200" r="7" fill="black" fill-opacity="1" />
<circle cx="5900" cy="1200" r="7" fill="black" fill-opacity="1" />
<circle cx="6000" cy="1200" r="7" fill="black" fill-opacity="1" />


</svg>
