<?xml version="1.0" encoding="utf-8"?>
<svg xmlns="http://www.w3.org/2000/svg" version="1.1" width="1000" height="800">

<line x1="225" y1="85" x2="175" y2="170" stroke="black" />
<text x="205" y="127" fill="black" >(6.00 ; 4.00)</text>
<line x1="225" y1="85" x2="275" y2="170" stroke="black" />
<text x="255" y="127" fill="black" >(9.00 ; 1.00)</text>
<line x1="175" y1="170" x2="275" y2="170" stroke="black" />
<text x="175" y="160" fill="black" >(8.00 ; 1.00)</text>
<line x1="175" y1="170" x2="125" y2="255" stroke="black" />
<text x="155" y="212" fill="black" >(5.00 ; 7.00)</text>
<line x1="175" y1="170" x2="225" y2="255" stroke="black" />
<text x="205" y="212" fill="black" >(9.00 ; 6.00)</text>
<line x1="275" y1="170" x2="225" y2="255" stroke="black" />
<text x="255" y="212" fill="black" >(2.00 ; 1.00)</text>
<line x1="275" y1="170" x2="325" y2="255" stroke="black" />
<text x="305" y="212" fill="black" >(4.00 ; 5.00)</text>
<line x1="125" y1="255" x2="225" y2="255" stroke="black" />
<text x="125" y="245" fill="black" >(1.00 ; 8.00)</text>
<line x1="225" y1="255" x2="325" y2="255" stroke="black" />
<text x="225" y="245" fill="black" >(8.00 ; 7.00)</text>
<line x1="125" y1="255" x2="75" y2="340" stroke="black" />
<text x="105" y="297" fill="black" >(3.00 ; 6.00)</text>
<line x1="125" y1="255" x2="175" y2="340" stroke="black" />
<text x="155" y="297" fill="black" >(9.00 ; 9.00)</text>
<line x1="225" y1="255" x2="175" y2="340" stroke="black" />
<text x="205" y="297" fill="black" >(3.00 ; 6.00)</text>
<line x1="225" y1="255" x2="275" y2="340" stroke="black" />
<text x="255" y="297" fill="black" >(8.00 ; 3.00)</text>
<line x1="325" y1="255" x2="275" y2="340" stroke="black" />
<text x="305" y="297" fill="black" >(7.00 ; 1.00)</text>
<line x1="325" y1="255" x2="375" y2="340" stroke="black" />
<text x="355" y="297" fill="black" >(8.00 ; 3.00)</text>
<line x1="75" y1="340" x2="175" y2="340" stroke="black" />
<text x="75" y="330" fill="black" >(6.00 ; 1.00)</text>
<line x1="175" y1="340" x2="275" y2="340" stroke="black" />
<text x="175" y="330" fill="black" >(8.00 ; 7.00)</text>
<line x1="275" y1="340" x2="375" y2="340" stroke="black" />
<text x="275" y="330" fill="black" >(9.00 ; 5.00)</text>
<circle cx="225" cy="85" r="7" fill="black" fill-opacity="1" />
<circle cx="175" cy="170" r="7" fill="black" fill-opacity="1" />
<circle cx="275" cy="170" r="7" fill="black" fill-opacity="1" />
<circle cx="125" cy="255" r="7" fill="black" fill-opacity="1" />
<circle cx="225" cy="255" r="7" fill="black" fill-opacity="1" />
<circle cx="325" cy="255" r="7" fill="black" fill-opacity="1" />
<circle cx="75" cy="340" r="7" fill="black" fill-opacity="1" />
<circle cx="175" cy="340" r="7" fill="black" fill-opacity="1" />
<circle cx="275" cy="340" r="7" fill="black" fill-opacity="1" />
<circle cx="375" cy="340" r="7" fill="black" fill-opacity="1" />


</svg>
