<?xml version="1.0" encoding="utf-8"?>
<svg xmlns="http://www.w3.org/2000/svg" version="1.1" width="5000" height="20000">

<line x1="375" y1="50" x2="475" y2="50" stroke="black" />
<line x1="375" y1="50" x2="375" y2="150" stroke="black" />
<line x1="475" y1="50" x2="375" y2="150" stroke="black" />
<line x1="475" y1="50" x2="475" y2="150" stroke="black" />
<line x1="375" y1="150" x2="475" y2="150" stroke="black" />
<circle cx="375" cy="50" r="7" fill="black" fill-opacity="1" />
<circle cx="475" cy="50" r="7" fill="black" fill-opacity="1" />
<circle cx="375" cy="150" r="7" fill="black" fill-opacity="1" />
<circle cx="475" cy="150" r="7" fill="black" fill-opacity="1" />
<line x1="1100" y1="870" x2="1900" y2="870" stroke="black" />
<line x1="1130" y1="100" x2="1130" y2="900" stroke="black" />
<circle cx="1300" cy="500" r="2" fill="rgb(255,0,0)" fill-opacity="100" />
<circle cx="1357.14" cy="666.667" r="2" fill="rgb(255,0,0)" fill-opacity="100" />
<circle cx="1442.86" cy="566.667" r="2" fill="rgb(255,0,0)" fill-opacity="100" />
<circle cx="1442.86" cy="533.333" r="2" fill="rgb(255,0,0)" fill-opacity="100" />
<circle cx="1471.43" cy="500" r="2" fill="rgb(255,0,0)" fill-opacity="100" />
<circle cx="1500" cy="700" r="2" fill="rgb(255,0,0)" fill-opacity="100" />
<circle cx="1528.57" cy="666.667" r="2" fill="rgb(255,0,0)" fill-opacity="100" />
<circle cx="1614.29" cy="566.667" r="2" fill="rgb(255,0,0)" fill-opacity="100" />
<circle cx="1300" cy="500" r="5" fill="rgb(0,255,0)" fill-opacity="100" />
<circle cx="1357.14" cy="666.667" r="5" fill="rgb(0,255,0)" fill-opacity="100" />
<circle cx="1500" cy="700" r="5" fill="rgb(0,255,0)" fill-opacity="100" />
<line x1="150" y1="450" x2="150" y2="500" stroke="black" />
<line x1="200" y1="450" x2="150" y2="500" stroke="black" />
<line x1="150" y1="500" x2="200" y2="500" stroke="black" />
<circle cx="150" cy="450" r="3.5" fill="black" fill-opacity="1" />
<circle cx="200" cy="450" r="3.5" fill="black" fill-opacity="1" />
<circle cx="150" cy="500" r="3.5" fill="black" fill-opacity="1" />
<circle cx="200" cy="500" r="3.5" fill="black" fill-opacity="1" />
<text x="196" y="620" fill="black" >(11 ; </text>
<text x="196" y="620" fill="black" >(11 ; 20)</text>
<line x1="450" y1="450" x2="450" y2="500" stroke="black" />
<line x1="500" y1="450" x2="450" y2="500" stroke="black" />
<line x1="500" y1="450" x2="500" y2="500" stroke="black" />
<circle cx="450" cy="450" r="3.5" fill="black" fill-opacity="1" />
<circle cx="500" cy="450" r="3.5" fill="black" fill-opacity="1" />
<circle cx="450" cy="500" r="3.5" fill="black" fill-opacity="1" />
<circle cx="500" cy="500" r="3.5" fill="black" fill-opacity="1" />
<text x="496" y="620" fill="black" >(13 ; </text>
<text x="496" y="620" fill="black" >(13 ; 15)</text>
<line x1="750" y1="450" x2="800" y2="450" stroke="black" />
<line x1="750" y1="450" x2="750" y2="500" stroke="black" />
<line x1="800" y1="450" x2="800" y2="500" stroke="black" />
<circle cx="750" cy="450" r="3.5" fill="black" fill-opacity="1" />
<circle cx="800" cy="450" r="3.5" fill="black" fill-opacity="1" />
<circle cx="750" cy="500" r="3.5" fill="black" fill-opacity="1" />
<circle cx="800" cy="500" r="3.5" fill="black" fill-opacity="1" />
<text x="796" y="620" fill="black" >(18 ; </text>
<text x="796" y="620" fill="black" >(18 ; 14)</text>


</svg>
