<?xml version="1.0" encoding="utf-8"?>
<svg xmlns="http://www.w3.org/2000/svg" version="1.1" width="5000" height="1000000">

<line x1="100" y1="100" x2="200" y2="100" stroke="black" />
<text x="100" y="90" fill="black" >(6.00 ; 5.00)</text>
<line x1="200" y1="100" x2="300" y2="100" stroke="black" />
<text x="200" y="90" fill="black" >(9.00 ; 8.00)</text>
<line x1="300" y1="100" x2="400" y2="100" stroke="black" />
<text x="300" y="90" fill="black" >(8.00 ; 7.00)</text>
<line x1="100" y1="200" x2="200" y2="200" stroke="black" />
<text x="100" y="190" fill="black" >(5.00 ; 6.00)</text>
<line x1="200" y1="200" x2="300" y2="200" stroke="black" />
<text x="200" y="190" fill="black" >(9.00 ; 9.00)</text>
<line x1="300" y1="200" x2="400" y2="200" stroke="black" />
<text x="300" y="190" fill="black" >(2.00 ; 6.00)</text>
<line x1="100" y1="300" x2="200" y2="300" stroke="black" />
<text x="100" y="290" fill="black" >(4.00 ; 3.00)</text>
<line x1="200" y1="300" x2="300" y2="300" stroke="black" />
<text x="200" y="290" fill="black" >(1.00 ; 1.00)</text>
<line x1="300" y1="300" x2="400" y2="300" stroke="black" />
<text x="300" y="290" fill="black" >(8.00 ; 3.00)</text>
<line x1="100" y1="400" x2="200" y2="400" stroke="black" />
<text x="100" y="390" fill="black" >(3.00 ; 1.00)</text>
<line x1="200" y1="400" x2="300" y2="400" stroke="black" />
<text x="200" y="390" fill="black" >(9.00 ; 7.00)</text>
<line x1="300" y1="400" x2="400" y2="400" stroke="black" />
<text x="300" y="390" fill="black" >(3.00 ; 5.00)</text>
<line x1="100" y1="100" x2="100" y2="200" stroke="black" />
<text x="105" y="150" fill="black" >(8.00 ; 9.00)</text>
<line x1="100" y1="200" x2="100" y2="300" stroke="black" />
<text x="105" y="250" fill="black" >(8.00 ; 3.00)</text>
<line x1="100" y1="300" x2="100" y2="400" stroke="black" />
<text x="105" y="350" fill="black" >(1.00 ; 7.00)</text>
<circle cx="100" cy="100" r="7" fill="black" fill-opacity="1" />
<circle cx="200" cy="100" r="7" fill="black" fill-opacity="1" />
<circle cx="300" cy="100" r="7" fill="black" fill-opacity="1" />
<circle cx="400" cy="100" r="7" fill="black" fill-opacity="1" />
<circle cx="100" cy="200" r="7" fill="black" fill-opacity="1" />
<circle cx="200" cy="200" r="7" fill="black" fill-opacity="1" />
<circle cx="300" cy="200" r="7" fill="black" fill-opacity="1" />
<circle cx="400" cy="200" r="7" fill="black" fill-opacity="1" />
<circle cx="100" cy="300" r="7" fill="black" fill-opacity="1" />
<circle cx="200" cy="300" r="7" fill="black" fill-opacity="1" />
<circle cx="300" cy="300" r="7" fill="black" fill-opacity="1" />
<circle cx="400" cy="300" r="7" fill="black" fill-opacity="1" />
<circle cx="100" cy="400" r="7" fill="black" fill-opacity="1" />
<circle cx="200" cy="400" r="7" fill="black" fill-opacity="1" />
<circle cx="300" cy="400" r="7" fill="black" fill-opacity="1" />
<circle cx="400" cy="400" r="7" fill="black" fill-opacity="1" />
<line x1="550" y1="100" x2="650" y2="100" stroke="black" />
<text x="550" y="90" fill="black" >(6.00 ; 5.00)</text>
<line x1="650" y1="100" x2="750" y2="100" stroke="black" />
<text x="650" y="90" fill="black" >(9.00 ; 8.00)</text>
<line x1="750" y1="100" x2="850" y2="100" stroke="black" />
<text x="750" y="90" fill="black" >(8.00 ; 7.00)</text>
<line x1="550" y1="200" x2="650" y2="200" stroke="black" />
<text x="550" y="190" fill="black" >(5.00 ; 6.00)</text>
<line x1="650" y1="200" x2="750" y2="200" stroke="black" />
<text x="650" y="190" fill="black" >(9.00 ; 9.00)</text>
<line x1="750" y1="200" x2="850" y2="200" stroke="black" />
<text x="750" y="190" fill="black" >(2.00 ; 6.00)</text>
<line x1="550" y1="300" x2="650" y2="300" stroke="black" />
<text x="550" y="290" fill="black" >(4.00 ; 3.00)</text>
<line x1="650" y1="300" x2="750" y2="300" stroke="black" />
<text x="650" y="290" fill="black" >(1.00 ; 1.00)</text>
<line x1="750" y1="300" x2="850" y2="300" stroke="black" />
<text x="750" y="290" fill="black" >(8.00 ; 3.00)</text>
<line x1="550" y1="400" x2="650" y2="400" stroke="black" />
<text x="550" y="390" fill="black" >(3.00 ; 1.00)</text>
<line x1="650" y1="400" x2="750" y2="400" stroke="black" />
<text x="650" y="390" fill="black" >(9.00 ; 7.00)</text>
<line x1="750" y1="400" x2="850" y2="400" stroke="black" />
<text x="750" y="390" fill="black" >(3.00 ; 5.00)</text>
<line x1="650" y1="100" x2="650" y2="200" stroke="black" />
<text x="655" y="150" fill="black" >(7.00 ; 2.00)</text>
<line x1="550" y1="200" x2="550" y2="300" stroke="black" />
<text x="555" y="250" fill="black" >(8.00 ; 3.00)</text>
<line x1="550" y1="300" x2="550" y2="400" stroke="black" />
<text x="555" y="350" fill="black" >(1.00 ; 7.00)</text>
<circle cx="550" cy="100" r="7" fill="black" fill-opacity="1" />
<circle cx="650" cy="100" r="7" fill="black" fill-opacity="1" />
<circle cx="750" cy="100" r="7" fill="black" fill-opacity="1" />
<circle cx="850" cy="100" r="7" fill="black" fill-opacity="1" />
<circle cx="550" cy="200" r="7" fill="black" fill-opacity="1" />
<circle cx="650" cy="200" r="7" fill="black" fill-opacity="1" />
<circle cx="750" cy="200" r="7" fill="black" fill-opacity="1" />
<circle cx="850" cy="200" r="7" fill="black" fill-opacity="1" />
<circle cx="550" cy="300" r="7" fill="black" fill-opacity="1" />
<circle cx="650" cy="300" r="7" fill="black" fill-opacity="1" />
<circle cx="750" cy="300" r="7" fill="black" fill-opacity="1" />
<circle cx="850" cy="300" r="7" fill="black" fill-opacity="1" />
<circle cx="550" cy="400" r="7" fill="black" fill-opacity="1" />
<circle cx="650" cy="400" r="7" fill="black" fill-opacity="1" />
<circle cx="750" cy="400" r="7" fill="black" fill-opacity="1" />
<circle cx="850" cy="400" r="7" fill="black" fill-opacity="1" />
<line x1="1000" y1="100" x2="1100" y2="100" stroke="black" />
<text x="1000" y="90" fill="black" >(6.00 ; 5.00)</text>
<line x1="1100" y1="100" x2="1200" y2="100" stroke="black" />
<text x="1100" y="90" fill="black" >(9.00 ; 8.00)</text>
<line x1="1200" y1="100" x2="1300" y2="100" stroke="black" />
<text x="1200" y="90" fill="black" >(8.00 ; 7.00)</text>
<line x1="1100" y1="200" x2="1200" y2="200" stroke="black" />
<text x="1100" y="190" fill="black" >(9.00 ; 9.00)</text>
<line x1="1200" y1="200" x2="1300" y2="200" stroke="black" />
<text x="1200" y="190" fill="black" >(2.00 ; 6.00)</text>
<line x1="1000" y1="300" x2="1100" y2="300" stroke="black" />
<text x="1000" y="290" fill="black" >(4.00 ; 3.00)</text>
<line x1="1100" y1="300" x2="1200" y2="300" stroke="black" />
<text x="1100" y="290" fill="black" >(1.00 ; 1.00)</text>
<line x1="1200" y1="300" x2="1300" y2="300" stroke="black" />
<text x="1200" y="290" fill="black" >(8.00 ; 3.00)</text>
<line x1="1000" y1="400" x2="1100" y2="400" stroke="black" />
<text x="1000" y="390" fill="black" >(3.00 ; 1.00)</text>
<line x1="1100" y1="400" x2="1200" y2="400" stroke="black" />
<text x="1100" y="390" fill="black" >(9.00 ; 7.00)</text>
<line x1="1200" y1="400" x2="1300" y2="400" stroke="black" />
<text x="1200" y="390" fill="black" >(3.00 ; 5.00)</text>
<line x1="1000" y1="100" x2="1000" y2="200" stroke="black" />
<text x="1005" y="150" fill="black" >(8.00 ; 9.00)</text>
<line x1="1100" y1="100" x2="1100" y2="200" stroke="black" />
<text x="1105" y="150" fill="black" >(7.00 ; 2.00)</text>
<line x1="1000" y1="200" x2="1000" y2="300" stroke="black" />
<text x="1005" y="250" fill="black" >(8.00 ; 3.00)</text>
<line x1="1000" y1="300" x2="1000" y2="400" stroke="black" />
<text x="1005" y="350" fill="black" >(1.00 ; 7.00)</text>
<circle cx="1000" cy="100" r="7" fill="black" fill-opacity="1" />
<circle cx="1100" cy="100" r="7" fill="black" fill-opacity="1" />
<circle cx="1200" cy="100" r="7" fill="black" fill-opacity="1" />
<circle cx="1300" cy="100" r="7" fill="black" fill-opacity="1" />
<circle cx="1000" cy="200" r="7" fill="black" fill-opacity="1" />
<circle cx="1100" cy="200" r="7" fill="black" fill-opacity="1" />
<circle cx="1200" cy="200" r="7" fill="black" fill-opacity="1" />
<circle cx="1300" cy="200" r="7" fill="black" fill-opacity="1" />
<circle cx="1000" cy="300" r="7" fill="black" fill-opacity="1" />
<circle cx="1100" cy="300" r="7" fill="black" fill-opacity="1" />
<circle cx="1200" cy="300" r="7" fill="black" fill-opacity="1" />
<circle cx="1300" cy="300" r="7" fill="black" fill-opacity="1" />
<circle cx="1000" cy="400" r="7" fill="black" fill-opacity="1" />
<circle cx="1100" cy="400" r="7" fill="black" fill-opacity="1" />
<circle cx="1200" cy="400" r="7" fill="black" fill-opacity="1" />
<circle cx="1300" cy="400" r="7" fill="black" fill-opacity="1" />
<line x1="1550" y1="100" x2="1650" y2="100" stroke="black" />
<text x="1550" y="90" fill="black" >(9.00 ; 8.00)</text>
<line x1="1650" y1="100" x2="1750" y2="100" stroke="black" />
<text x="1650" y="90" fill="black" >(8.00 ; 7.00)</text>
<line x1="1450" y1="200" x2="1550" y2="200" stroke="black" />
<text x="1450" y="190" fill="black" >(5.00 ; 6.00)</text>
<line x1="1550" y1="200" x2="1650" y2="200" stroke="black" />
<text x="1550" y="190" fill="black" >(9.00 ; 9.00)</text>
<line x1="1650" y1="200" x2="1750" y2="200" stroke="black" />
<text x="1650" y="190" fill="black" >(2.00 ; 6.00)</text>
<line x1="1450" y1="300" x2="1550" y2="300" stroke="black" />
<text x="1450" y="290" fill="black" >(4.00 ; 3.00)</text>
<line x1="1550" y1="300" x2="1650" y2="300" stroke="black" />
<text x="1550" y="290" fill="black" >(1.00 ; 1.00)</text>
<line x1="1650" y1="300" x2="1750" y2="300" stroke="black" />
<text x="1650" y="290" fill="black" >(8.00 ; 3.00)</text>
<line x1="1450" y1="400" x2="1550" y2="400" stroke="black" />
<text x="1450" y="390" fill="black" >(3.00 ; 1.00)</text>
<line x1="1550" y1="400" x2="1650" y2="400" stroke="black" />
<text x="1550" y="390" fill="black" >(9.00 ; 7.00)</text>
<line x1="1650" y1="400" x2="1750" y2="400" stroke="black" />
<text x="1650" y="390" fill="black" >(3.00 ; 5.00)</text>
<line x1="1450" y1="100" x2="1450" y2="200" stroke="black" />
<text x="1455" y="150" fill="black" >(8.00 ; 9.00)</text>
<line x1="1550" y1="100" x2="1550" y2="200" stroke="black" />
<text x="1555" y="150" fill="black" >(7.00 ; 2.00)</text>
<line x1="1450" y1="200" x2="1450" y2="300" stroke="black" />
<text x="1455" y="250" fill="black" >(8.00 ; 3.00)</text>
<line x1="1450" y1="300" x2="1450" y2="400" stroke="black" />
<text x="1455" y="350" fill="black" >(1.00 ; 7.00)</text>
<circle cx="1450" cy="100" r="7" fill="black" fill-opacity="1" />
<circle cx="1550" cy="100" r="7" fill="black" fill-opacity="1" />
<circle cx="1650" cy="100" r="7" fill="black" fill-opacity="1" />
<circle cx="1750" cy="100" r="7" fill="black" fill-opacity="1" />
<circle cx="1450" cy="200" r="7" fill="black" fill-opacity="1" />
<circle cx="1550" cy="200" r="7" fill="black" fill-opacity="1" />
<circle cx="1650" cy="200" r="7" fill="black" fill-opacity="1" />
<circle cx="1750" cy="200" r="7" fill="black" fill-opacity="1" />
<circle cx="1450" cy="300" r="7" fill="black" fill-opacity="1" />
<circle cx="1550" cy="300" r="7" fill="black" fill-opacity="1" />
<circle cx="1650" cy="300" r="7" fill="black" fill-opacity="1" />
<circle cx="1750" cy="300" r="7" fill="black" fill-opacity="1" />
<circle cx="1450" cy="400" r="7" fill="black" fill-opacity="1" />
<circle cx="1550" cy="400" r="7" fill="black" fill-opacity="1" />
<circle cx="1650" cy="400" r="7" fill="black" fill-opacity="1" />
<circle cx="1750" cy="400" r="7" fill="black" fill-opacity="1" />
<line x1="1900" y1="100" x2="2000" y2="100" stroke="black" />
<text x="1900" y="90" fill="black" >(6.00 ; 5.00)</text>
<line x1="2000" y1="100" x2="2100" y2="100" stroke="black" />
<text x="2000" y="90" fill="black" >(9.00 ; 8.00)</text>
<line x1="2100" y1="100" x2="2200" y2="100" stroke="black" />
<text x="2100" y="90" fill="black" >(8.00 ; 7.00)</text>
<line x1="1900" y1="200" x2="2000" y2="200" stroke="black" />
<text x="1900" y="190" fill="black" >(5.00 ; 6.00)</text>
<line x1="2000" y1="200" x2="2100" y2="200" stroke="black" />
<text x="2000" y="190" fill="black" >(9.00 ; 9.00)</text>
<line x1="2100" y1="200" x2="2200" y2="200" stroke="black" />
<text x="2100" y="190" fill="black" >(2.00 ; 6.00)</text>
<line x1="1900" y1="300" x2="2000" y2="300" stroke="black" />
<text x="1900" y="290" fill="black" >(4.00 ; 3.00)</text>
<line x1="2000" y1="300" x2="2100" y2="300" stroke="black" />
<text x="2000" y="290" fill="black" >(1.00 ; 1.00)</text>
<line x1="2100" y1="300" x2="2200" y2="300" stroke="black" />
<text x="2100" y="290" fill="black" >(8.00 ; 3.00)</text>
<line x1="1900" y1="400" x2="2000" y2="400" stroke="black" />
<text x="1900" y="390" fill="black" >(3.00 ; 1.00)</text>
<line x1="2000" y1="400" x2="2100" y2="400" stroke="black" />
<text x="2000" y="390" fill="black" >(9.00 ; 7.00)</text>
<line x1="2100" y1="400" x2="2200" y2="400" stroke="black" />
<text x="2100" y="390" fill="black" >(3.00 ; 5.00)</text>
<line x1="2100" y1="100" x2="2100" y2="200" stroke="black" />
<text x="2105" y="150" fill="black" >(8.00 ; 8.00)</text>
<line x1="1900" y1="200" x2="1900" y2="300" stroke="black" />
<text x="1905" y="250" fill="black" >(8.00 ; 3.00)</text>
<line x1="1900" y1="300" x2="1900" y2="400" stroke="black" />
<text x="1905" y="350" fill="black" >(1.00 ; 7.00)</text>
<circle cx="1900" cy="100" r="7" fill="black" fill-opacity="1" />
<circle cx="2000" cy="100" r="7" fill="black" fill-opacity="1" />
<circle cx="2100" cy="100" r="7" fill="black" fill-opacity="1" />
<circle cx="2200" cy="100" r="7" fill="black" fill-opacity="1" />
<circle cx="1900" cy="200" r="7" fill="black" fill-opacity="1" />
<circle cx="2000" cy="200" r="7" fill="black" fill-opacity="1" />
<circle cx="2100" cy="200" r="7" fill="black" fill-opacity="1" />
<circle cx="2200" cy="200" r="7" fill="black" fill-opacity="1" />
<circle cx="1900" cy="300" r="7" fill="black" fill-opacity="1" />
<circle cx="2000" cy="300" r="7" fill="black" fill-opacity="1" />
<circle cx="2100" cy="300" r="7" fill="black" fill-opacity="1" />
<circle cx="2200" cy="300" r="7" fill="black" fill-opacity="1" />
<circle cx="1900" cy="400" r="7" fill="black" fill-opacity="1" />
<circle cx="2000" cy="400" r="7" fill="black" fill-opacity="1" />
<circle cx="2100" cy="400" r="7" fill="black" fill-opacity="1" />
<circle cx="2200" cy="400" r="7" fill="black" fill-opacity="1" />


</svg>
