<?xml version="1.0" encoding="utf-8"?>
<svg xmlns="http://www.w3.org/2000/svg" version="1.1" width="5000" height="20000">

<line x1="375" y1="50" x2="675" y2="50" stroke="black" />
<line x1="375" y1="50" x2="375" y2="350" stroke="black" />
<line x1="375" y1="50" x2="475" y2="150" stroke="black" />
<line x1="475" y1="150" x2="575" y2="150" stroke="black" />
<line x1="675" y1="50" x2="575" y2="150" stroke="black" />
<line x1="675" y1="50" x2="675" y2="350" stroke="black" />
<line x1="475" y1="150" x2="475" y2="250" stroke="black" />
<line x1="575" y1="150" x2="575" y2="250" stroke="black" />
<line x1="475" y1="250" x2="375" y2="350" stroke="black" />
<line x1="475" y1="250" x2="575" y2="250" stroke="black" />
<line x1="575" y1="250" x2="675" y2="350" stroke="black" />
<line x1="375" y1="350" x2="675" y2="350" stroke="black" />
<circle cx="375" cy="50" r="7" fill="black" fill-opacity="1" />
<circle cx="675" cy="50" r="7" fill="black" fill-opacity="1" />
<circle cx="475" cy="150" r="7" fill="black" fill-opacity="1" />
<circle cx="575" cy="150" r="7" fill="black" fill-opacity="1" />
<circle cx="475" cy="250" r="7" fill="black" fill-opacity="1" />
<circle cx="575" cy="250" r="7" fill="black" fill-opacity="1" />
<circle cx="375" cy="350" r="7" fill="black" fill-opacity="1" />
<circle cx="675" cy="350" r="7" fill="black" fill-opacity="1" />
<line x1="1050" y1="900" x2="1900" y2="900" stroke="black" />
<line x1="1100" y1="100" x2="1100" y2="950" stroke="black" />
<circle cx="1180" cy="660" r="2" fill="rgb(255,0,0)" fill-opacity="100" />
<circle cx="1244" cy="740" r="2" fill="rgb(255,0,0)" fill-opacity="100" />
<circle cx="1244" cy="460" r="2" fill="rgb(255,0,0)" fill-opacity="100" />
<circle cx="1308" cy="780" r="2" fill="rgb(255,0,0)" fill-opacity="100" />
<circle cx="1308" cy="700" r="2" fill="rgb(255,0,0)" fill-opacity="100" />
<circle cx="1308" cy="540" r="2" fill="rgb(255,0,0)" fill-opacity="100" />
<circle cx="1308" cy="460" r="2" fill="rgb(255,0,0)" fill-opacity="100" />
<circle cx="1372" cy="740" r="2" fill="rgb(255,0,0)" fill-opacity="100" />
<circle cx="1372" cy="660" r="2" fill="rgb(255,0,0)" fill-opacity="100" />
<circle cx="1372" cy="580" r="2" fill="rgb(255,0,0)" fill-opacity="100" />
<circle cx="1372" cy="540" r="2.04" fill="rgb(255,0,0)" fill-opacity="100" />
<circle cx="1436" cy="740" r="2.04" fill="rgb(255,0,0)" fill-opacity="100" />
<circle cx="1436" cy="660" r="2.04" fill="rgb(255,0,0)" fill-opacity="100" />
<circle cx="1436" cy="620" r="2.04" fill="rgb(255,0,0)" fill-opacity="100" />
<circle cx="1436" cy="580" r="2" fill="rgb(255,0,0)" fill-opacity="100" />
<circle cx="1436" cy="500" r="2" fill="rgb(255,0,0)" fill-opacity="100" />
<circle cx="1436" cy="460" r="2" fill="rgb(255,0,0)" fill-opacity="100" />
<circle cx="1436" cy="340" r="2" fill="rgb(255,0,0)" fill-opacity="100" />
<circle cx="1500" cy="820" r="2" fill="rgb(255,0,0)" fill-opacity="100" />
<circle cx="1500" cy="780" r="2" fill="rgb(255,0,0)" fill-opacity="100" />
<circle cx="1500" cy="700" r="2" fill="rgb(255,0,0)" fill-opacity="100" />
<circle cx="1500" cy="660" r="2.08" fill="rgb(255,0,0)" fill-opacity="100" />
<circle cx="1500" cy="620" r="2.04" fill="rgb(255,0,0)" fill-opacity="100" />
<circle cx="1500" cy="580" r="2" fill="rgb(255,0,0)" fill-opacity="100" />
<circle cx="1500" cy="540" r="2" fill="rgb(255,0,0)" fill-opacity="100" />
<circle cx="1500" cy="460" r="2.04" fill="rgb(255,0,0)" fill-opacity="100" />
<circle cx="1500" cy="420" r="2.04" fill="rgb(255,0,0)" fill-opacity="100" />
<circle cx="1500" cy="340" r="2" fill="rgb(255,0,0)" fill-opacity="100" />
<circle cx="1564" cy="780" r="2" fill="rgb(255,0,0)" fill-opacity="100" />
<circle cx="1564" cy="740" r="2" fill="rgb(255,0,0)" fill-opacity="100" />
<circle cx="1564" cy="660" r="2.04" fill="rgb(255,0,0)" fill-opacity="100" />
<circle cx="1564" cy="620" r="2.08" fill="rgb(255,0,0)" fill-opacity="100" />
<circle cx="1564" cy="580" r="2.08" fill="rgb(255,0,0)" fill-opacity="100" />
<circle cx="1564" cy="540" r="2.04" fill="rgb(255,0,0)" fill-opacity="100" />
<circle cx="1564" cy="500" r="2.04" fill="rgb(255,0,0)" fill-opacity="100" />
<circle cx="1564" cy="460" r="2" fill="rgb(255,0,0)" fill-opacity="100" />
<circle cx="1564" cy="420" r="2.08" fill="rgb(255,0,0)" fill-opacity="100" />
<circle cx="1628" cy="780" r="2" fill="rgb(255,0,0)" fill-opacity="100" />
<circle cx="1628" cy="740" r="2" fill="rgb(255,0,0)" fill-opacity="100" />
<circle cx="1628" cy="660" r="2.08" fill="rgb(255,0,0)" fill-opacity="100" />
<circle cx="1628" cy="620" r="2.16" fill="rgb(255,0,0)" fill-opacity="100" />
<circle cx="1628" cy="580" r="2.08" fill="rgb(255,0,0)" fill-opacity="100" />
<circle cx="1628" cy="540" r="2.04" fill="rgb(255,0,0)" fill-opacity="100" />
<circle cx="1628" cy="500" r="2.04" fill="rgb(255,0,0)" fill-opacity="100" />
<circle cx="1628" cy="460" r="2.04" fill="rgb(255,0,0)" fill-opacity="100" />
<circle cx="1628" cy="380" r="2.04" fill="rgb(255,0,0)" fill-opacity="100" />
<circle cx="1692" cy="820" r="2" fill="rgb(255,0,0)" fill-opacity="100" />
<circle cx="1692" cy="780" r="2" fill="rgb(255,0,0)" fill-opacity="100" />
<circle cx="1692" cy="740" r="2" fill="rgb(255,0,0)" fill-opacity="100" />
<circle cx="1692" cy="700" r="2.08" fill="rgb(255,0,0)" fill-opacity="100" />
<circle cx="1692" cy="660" r="2.2" fill="rgb(255,0,0)" fill-opacity="100" />
<circle cx="1692" cy="620" r="2" fill="rgb(255,0,0)" fill-opacity="100" />
<circle cx="1692" cy="580" r="2.04" fill="rgb(255,0,0)" fill-opacity="100" />
<circle cx="1692" cy="540" r="2.16" fill="rgb(255,0,0)" fill-opacity="100" />
<circle cx="1692" cy="500" r="2" fill="rgb(255,0,0)" fill-opacity="100" />
<circle cx="1692" cy="460" r="2" fill="rgb(255,0,0)" fill-opacity="100" />
<circle cx="1692" cy="420" r="2.08" fill="rgb(255,0,0)" fill-opacity="100" />
<circle cx="1692" cy="340" r="2" fill="rgb(255,0,0)" fill-opacity="100" />
<circle cx="1756" cy="780" r="2" fill="rgb(255,0,0)" fill-opacity="100" />
<circle cx="1756" cy="740" r="2.04" fill="rgb(255,0,0)" fill-opacity="100" />
<circle cx="1756" cy="700" r="2" fill="rgb(255,0,0)" fill-opacity="100" />
<circle cx="1756" cy="660" r="2.04" fill="rgb(255,0,0)" fill-opacity="100" />
<circle cx="1756" cy="620" r="2.16" fill="rgb(255,0,0)" fill-opacity="100" />
<circle cx="1756" cy="580" r="2" fill="rgb(255,0,0)" fill-opacity="100" />
<circle cx="1756" cy="540" r="2.04" fill="rgb(255,0,0)" fill-opacity="100" />
<circle cx="1756" cy="500" r="2.2" fill="rgb(255,0,0)" fill-opacity="100" />
<circle cx="1756" cy="460" r="2.08" fill="rgb(255,0,0)" fill-opacity="100" />
<circle cx="1756" cy="420" r="2" fill="rgb(255,0,0)" fill-opacity="100" />
<circle cx="1756" cy="380" r="2" fill="rgb(255,0,0)" fill-opacity="100" />
<circle cx="1756" cy="340" r="2.04" fill="rgb(255,0,0)" fill-opacity="100" />
<circle cx="1756" cy="260" r="2" fill="rgb(255,0,0)" fill-opacity="100" />
<circle cx="1820" cy="820" r="2" fill="rgb(255,0,0)" fill-opacity="100" />
<circle cx="1820" cy="740" r="2" fill="rgb(255,0,0)" fill-opacity="100" />
<circle cx="1820" cy="700" r="2.04" fill="rgb(255,0,0)" fill-opacity="100" />
<circle cx="1820" cy="660" r="2.08" fill="rgb(255,0,0)" fill-opacity="100" />
<circle cx="1820" cy="620" r="2.2" fill="rgb(255,0,0)" fill-opacity="100" />
<circle cx="1820" cy="580" r="2.04" fill="rgb(255,0,0)" fill-opacity="100" />
<circle cx="1820" cy="540" r="2.08" fill="rgb(255,0,0)" fill-opacity="100" />
<circle cx="1820" cy="500" r="2.12" fill="rgb(255,0,0)" fill-opacity="100" />
<circle cx="1820" cy="460" r="2.16" fill="rgb(255,0,0)" fill-opacity="100" />
<circle cx="1820" cy="380" r="2.08" fill="rgb(255,0,0)" fill-opacity="100" />
<circle cx="1820" cy="340" r="2.04" fill="rgb(255,0,0)" fill-opacity="100" />
<circle cx="1820" cy="260" r="2.04" fill="rgb(255,0,0)" fill-opacity="100" />
<circle cx="1884" cy="740" r="2" fill="rgb(255,0,0)" fill-opacity="100" />
<circle cx="1884" cy="700" r="2.12" fill="rgb(255,0,0)" fill-opacity="100" />
<circle cx="1884" cy="660" r="2.04" fill="rgb(255,0,0)" fill-opacity="100" />
<circle cx="1884" cy="620" r="2.04" fill="rgb(255,0,0)" fill-opacity="100" />
<circle cx="1884" cy="580" r="2.2" fill="rgb(255,0,0)" fill-opacity="100" />
<circle cx="1884" cy="540" r="2.08" fill="rgb(255,0,0)" fill-opacity="100" />
<circle cx="1884" cy="500" r="2.04" fill="rgb(255,0,0)" fill-opacity="100" />
<circle cx="1884" cy="460" r="2.08" fill="rgb(255,0,0)" fill-opacity="100" />
<circle cx="1884" cy="420" r="2.16" fill="rgb(255,0,0)" fill-opacity="100" />
<circle cx="1884" cy="380" r="2" fill="rgb(255,0,0)" fill-opacity="100" />
<circle cx="1884" cy="340" r="2.04" fill="rgb(255,0,0)" fill-opacity="100" />
<circle cx="1884" cy="300" r="2.04" fill="rgb(255,0,0)" fill-opacity="100" />
<circle cx="1948" cy="820" r="2" fill="rgb(255,0,0)" fill-opacity="100" />
<circle cx="1948" cy="780" r="2" fill="rgb(255,0,0)" fill-opacity="100" />
<circle cx="1948" cy="740" r="2.04" fill="rgb(255,0,0)" fill-opacity="100" />
<circle cx="1948" cy="700" r="2" fill="rgb(255,0,0)" fill-opacity="100" />
<circle cx="1948" cy="660" r="2.08" fill="rgb(255,0,0)" fill-opacity="100" />
<circle cx="1948" cy="620" r="2.04" fill="rgb(255,0,0)" fill-opacity="100" />
<circle cx="1948" cy="580" r="2.04" fill="rgb(255,0,0)" fill-opacity="100" />
<circle cx="1948" cy="540" r="2.12" fill="rgb(255,0,0)" fill-opacity="100" />
<circle cx="1948" cy="500" r="2.12" fill="rgb(255,0,0)" fill-opacity="100" />
<circle cx="1948" cy="460" r="2.04" fill="rgb(255,0,0)" fill-opacity="100" />
<circle cx="1948" cy="420" r="2.16" fill="rgb(255,0,0)" fill-opacity="100" />
<circle cx="1948" cy="380" r="2.08" fill="rgb(255,0,0)" fill-opacity="100" />
<circle cx="1948" cy="300" r="2.04" fill="rgb(255,0,0)" fill-opacity="100" />
<circle cx="2012" cy="780" r="2.04" fill="rgb(255,0,0)" fill-opacity="100" />
<circle cx="2012" cy="740" r="2" fill="rgb(255,0,0)" fill-opacity="100" />
<circle cx="2012" cy="660" r="2.08" fill="rgb(255,0,0)" fill-opacity="100" />
<circle cx="2012" cy="620" r="2.12" fill="rgb(255,0,0)" fill-opacity="100" />
<circle cx="2012" cy="580" r="2.04" fill="rgb(255,0,0)" fill-opacity="100" />
<circle cx="2012" cy="540" r="2.2" fill="rgb(255,0,0)" fill-opacity="100" />
<circle cx="2012" cy="500" r="2.12" fill="rgb(255,0,0)" fill-opacity="100" />
<circle cx="2012" cy="420" r="2.12" fill="rgb(255,0,0)" fill-opacity="100" />
<circle cx="2012" cy="380" r="2.08" fill="rgb(255,0,0)" fill-opacity="100" />
<circle cx="2012" cy="260" r="2.08" fill="rgb(255,0,0)" fill-opacity="100" />
<circle cx="2076" cy="780" r="2" fill="rgb(255,0,0)" fill-opacity="100" />
<circle cx="2076" cy="740" r="2" fill="rgb(255,0,0)" fill-opacity="100" />
<circle cx="2076" cy="700" r="2.08" fill="rgb(255,0,0)" fill-opacity="100" />
<circle cx="2076" cy="660" r="2" fill="rgb(255,0,0)" fill-opacity="100" />
<circle cx="2076" cy="620" r="2.04" fill="rgb(255,0,0)" fill-opacity="100" />
<circle cx="2076" cy="580" r="2.08" fill="rgb(255,0,0)" fill-opacity="100" />
<circle cx="2076" cy="540" r="2.08" fill="rgb(255,0,0)" fill-opacity="100" />
<circle cx="2076" cy="500" r="2.04" fill="rgb(255,0,0)" fill-opacity="100" />
<circle cx="2076" cy="460" r="2.08" fill="rgb(255,0,0)" fill-opacity="100" />
<circle cx="2076" cy="420" r="2.04" fill="rgb(255,0,0)" fill-opacity="100" />
<circle cx="2076" cy="380" r="2.04" fill="rgb(255,0,0)" fill-opacity="100" />
<circle cx="2076" cy="340" r="2" fill="rgb(255,0,0)" fill-opacity="100" />
<circle cx="2076" cy="300" r="2.04" fill="rgb(255,0,0)" fill-opacity="100" />
<circle cx="2076" cy="260" r="2" fill="rgb(255,0,0)" fill-opacity="100" />
<circle cx="2140" cy="820" r="2" fill="rgb(255,0,0)" fill-opacity="100" />
<circle cx="2140" cy="780" r="2" fill="rgb(255,0,0)" fill-opacity="100" />
<circle cx="2140" cy="740" r="2" fill="rgb(255,0,0)" fill-opacity="100" />
<circle cx="2140" cy="700" r="2" fill="rgb(255,0,0)" fill-opacity="100" />
<circle cx="2140" cy="660" r="2.16" fill="rgb(255,0,0)" fill-opacity="100" />
<circle cx="2140" cy="620" r="2.04" fill="rgb(255,0,0)" fill-opacity="100" />
<circle cx="2140" cy="580" r="2" fill="rgb(255,0,0)" fill-opacity="100" />
<circle cx="2140" cy="540" r="2" fill="rgb(255,0,0)" fill-opacity="100" />
<circle cx="2140" cy="500" r="2.08" fill="rgb(255,0,0)" fill-opacity="100" />
<circle cx="2140" cy="460" r="2.04" fill="rgb(255,0,0)" fill-opacity="100" />
<circle cx="2140" cy="420" r="2.04" fill="rgb(255,0,0)" fill-opacity="100" />
<circle cx="2140" cy="380" r="2" fill="rgb(255,0,0)" fill-opacity="100" />
<circle cx="2140" cy="340" r="2" fill="rgb(255,0,0)" fill-opacity="100" />
<circle cx="2140" cy="300" r="2" fill="rgb(255,0,0)" fill-opacity="100" />
<circle cx="2204" cy="780" r="2" fill="rgb(255,0,0)" fill-opacity="100" />
<circle cx="2204" cy="740" r="2" fill="rgb(255,0,0)" fill-opacity="100" />
<circle cx="2204" cy="660" r="2" fill="rgb(255,0,0)" fill-opacity="100" />
<circle cx="2204" cy="620" r="2.04" fill="rgb(255,0,0)" fill-opacity="100" />
<circle cx="2204" cy="580" r="2.04" fill="rgb(255,0,0)" fill-opacity="100" />
<circle cx="2204" cy="540" r="2" fill="rgb(255,0,0)" fill-opacity="100" />
<circle cx="2204" cy="500" r="2" fill="rgb(255,0,0)" fill-opacity="100" />
<circle cx="2204" cy="460" r="2.08" fill="rgb(255,0,0)" fill-opacity="100" />
<circle cx="2204" cy="420" r="2.08" fill="rgb(255,0,0)" fill-opacity="100" />
<circle cx="2204" cy="380" r="2" fill="rgb(255,0,0)" fill-opacity="100" />
<circle cx="2204" cy="220" r="2" fill="rgb(255,0,0)" fill-opacity="100" />
<circle cx="2268" cy="820" r="2" fill="rgb(255,0,0)" fill-opacity="100" />
<circle cx="2268" cy="740" r="2" fill="rgb(255,0,0)" fill-opacity="100" />
<circle cx="2268" cy="700" r="2" fill="rgb(255,0,0)" fill-opacity="100" />
<circle cx="2268" cy="660" r="2" fill="rgb(255,0,0)" fill-opacity="100" />
<circle cx="2268" cy="620" r="2.08" fill="rgb(255,0,0)" fill-opacity="100" />
<circle cx="2268" cy="580" r="2.04" fill="rgb(255,0,0)" fill-opacity="100" />
<circle cx="2268" cy="540" r="2" fill="rgb(255,0,0)" fill-opacity="100" />
<circle cx="2268" cy="500" r="2" fill="rgb(255,0,0)" fill-opacity="100" />
<circle cx="2268" cy="460" r="2" fill="rgb(255,0,0)" fill-opacity="100" />
<circle cx="2268" cy="380" r="2.08" fill="rgb(255,0,0)" fill-opacity="100" />
<circle cx="2268" cy="340" r="2" fill="rgb(255,0,0)" fill-opacity="100" />
<circle cx="2268" cy="300" r="2" fill="rgb(255,0,0)" fill-opacity="100" />
<circle cx="2268" cy="220" r="2.04" fill="rgb(255,0,0)" fill-opacity="100" />
<circle cx="2332" cy="740" r="2" fill="rgb(255,0,0)" fill-opacity="100" />
<circle cx="2332" cy="700" r="2" fill="rgb(255,0,0)" fill-opacity="100" />
<circle cx="2332" cy="580" r="2" fill="rgb(255,0,0)" fill-opacity="100" />
<circle cx="2332" cy="540" r="2" fill="rgb(255,0,0)" fill-opacity="100" />
<circle cx="2332" cy="500" r="2.04" fill="rgb(255,0,0)" fill-opacity="100" />
<circle cx="2332" cy="460" r="2" fill="rgb(255,0,0)" fill-opacity="100" />
<circle cx="2332" cy="380" r="2.04" fill="rgb(255,0,0)" fill-opacity="100" />
<circle cx="2332" cy="340" r="2" fill="rgb(255,0,0)" fill-opacity="100" />
<circle cx="2332" cy="300" r="2.04" fill="rgb(255,0,0)" fill-opacity="100" />
<circle cx="2396" cy="780" r="2.04" fill="rgb(255,0,0)" fill-opacity="100" />
<circle cx="2396" cy="740" r="2" fill="rgb(255,0,0)" fill-opacity="100" />
<circle cx="2396" cy="580" r="2" fill="rgb(255,0,0)" fill-opacity="100" />
<circle cx="2396" cy="540" r="2.04" fill="rgb(255,0,0)" fill-opacity="100" />
<circle cx="2396" cy="500" r="2" fill="rgb(255,0,0)" fill-opacity="100" />
<circle cx="2396" cy="460" r="2" fill="rgb(255,0,0)" fill-opacity="100" />
<circle cx="2396" cy="420" r="2" fill="rgb(255,0,0)" fill-opacity="100" />
<circle cx="2396" cy="380" r="2.08" fill="rgb(255,0,0)" fill-opacity="100" />
<circle cx="2396" cy="340" r="2" fill="rgb(255,0,0)" fill-opacity="100" />
<circle cx="2396" cy="260" r="2" fill="rgb(255,0,0)" fill-opacity="100" />
<circle cx="2460" cy="660" r="2" fill="rgb(255,0,0)" fill-opacity="100" />
<circle cx="2460" cy="500" r="2" fill="rgb(255,0,0)" fill-opacity="100" />
<circle cx="2460" cy="460" r="2.04" fill="rgb(255,0,0)" fill-opacity="100" />
<circle cx="2460" cy="340" r="2" fill="rgb(255,0,0)" fill-opacity="100" />
<circle cx="2524" cy="700" r="2" fill="rgb(255,0,0)" fill-opacity="100" />
<circle cx="2524" cy="540" r="2" fill="rgb(255,0,0)" fill-opacity="100" />
<circle cx="2524" cy="380" r="2" fill="rgb(255,0,0)" fill-opacity="100" />
<circle cx="2588" cy="460" r="2.04" fill="rgb(255,0,0)" fill-opacity="100" />
<circle cx="2652" cy="500" r="2" fill="rgb(255,0,0)" fill-opacity="100" />
<circle cx="1180" cy="660" r="5" fill="rgb(0,200,0)" fill-opacity="100" />
<circle cx="1244" cy="740" r="5" fill="rgb(0,200,0)" fill-opacity="100" />
<circle cx="1308" cy="780" r="5" fill="rgb(0,200,0)" fill-opacity="100" />
<circle cx="1500" cy="820" r="5" fill="rgb(0,200,0)" fill-opacity="100" />
<line x1="150" y1="450" x2="300" y2="450" stroke="black" />
<line x1="150" y1="450" x2="150" y2="600" stroke="black" />
<line x1="200" y1="500" x2="250" y2="500" stroke="black" />
<line x1="250" y1="500" x2="250" y2="550" stroke="black" />
<line x1="200" y1="550" x2="150" y2="600" stroke="black" />
<line x1="250" y1="550" x2="300" y2="600" stroke="black" />
<line x1="150" y1="600" x2="300" y2="600" stroke="black" />
<circle cx="150" cy="450" r="3.5" fill="black" fill-opacity="1" />
<circle cx="300" cy="450" r="3.5" fill="black" fill-opacity="1" />
<circle cx="200" cy="500" r="3.5" fill="black" fill-opacity="1" />
<circle cx="250" cy="500" r="3.5" fill="black" fill-opacity="1" />
<circle cx="200" cy="550" r="3.5" fill="black" fill-opacity="1" />
<circle cx="250" cy="550" r="3.5" fill="black" fill-opacity="1" />
<circle cx="150" cy="600" r="3.5" fill="black" fill-opacity="1" />
<circle cx="300" cy="600" r="3.5" fill="black" fill-opacity="1" />
<text x="200" y="430" fill="black" >(23 ; </text>
<text x="200" y="430" fill="black" >(23 ; 29)</text>
<line x1="450" y1="450" x2="450" y2="600" stroke="black" />
<line x1="500" y1="500" x2="550" y2="500" stroke="black" />
<line x1="600" y1="450" x2="600" y2="600" stroke="black" />
<line x1="550" y1="500" x2="550" y2="550" stroke="black" />
<line x1="500" y1="550" x2="450" y2="600" stroke="black" />
<line x1="550" y1="550" x2="600" y2="600" stroke="black" />
<line x1="450" y1="600" x2="600" y2="600" stroke="black" />
<circle cx="450" cy="450" r="3.5" fill="black" fill-opacity="1" />
<circle cx="600" cy="450" r="3.5" fill="black" fill-opacity="1" />
<circle cx="500" cy="500" r="3.5" fill="black" fill-opacity="1" />
<circle cx="550" cy="500" r="3.5" fill="black" fill-opacity="1" />
<circle cx="500" cy="550" r="3.5" fill="black" fill-opacity="1" />
<circle cx="550" cy="550" r="3.5" fill="black" fill-opacity="1" />
<circle cx="450" cy="600" r="3.5" fill="black" fill-opacity="1" />
<circle cx="600" cy="600" r="3.5" fill="black" fill-opacity="1" />
<text x="500" y="430" fill="black" >(24 ; </text>
<text x="500" y="430" fill="black" >(24 ; 27)</text>
<line x1="750" y1="450" x2="750" y2="600" stroke="black" />
<line x1="800" y1="500" x2="850" y2="500" stroke="black" />
<line x1="900" y1="450" x2="850" y2="500" stroke="black" />
<line x1="850" y1="500" x2="850" y2="550" stroke="black" />
<line x1="800" y1="550" x2="750" y2="600" stroke="black" />
<line x1="850" y1="550" x2="900" y2="600" stroke="black" />
<line x1="750" y1="600" x2="900" y2="600" stroke="black" />
<circle cx="750" cy="450" r="3.5" fill="black" fill-opacity="1" />
<circle cx="900" cy="450" r="3.5" fill="black" fill-opacity="1" />
<circle cx="800" cy="500" r="3.5" fill="black" fill-opacity="1" />
<circle cx="850" cy="500" r="3.5" fill="black" fill-opacity="1" />
<circle cx="800" cy="550" r="3.5" fill="black" fill-opacity="1" />
<circle cx="850" cy="550" r="3.5" fill="black" fill-opacity="1" />
<circle cx="750" cy="600" r="3.5" fill="black" fill-opacity="1" />
<circle cx="900" cy="600" r="3.5" fill="black" fill-opacity="1" />
<text x="800" y="430" fill="black" >(25 ; </text>
<text x="800" y="430" fill="black" >(25 ; 26)</text>
<line x1="150" y1="700" x2="150" y2="850" stroke="black" />
<line x1="200" y1="750" x2="250" y2="750" stroke="black" />
<line x1="300" y1="700" x2="250" y2="750" stroke="black" />
<line x1="300" y1="700" x2="300" y2="850" stroke="black" />
<line x1="250" y1="750" x2="250" y2="800" stroke="black" />
<line x1="200" y1="800" x2="150" y2="850" stroke="black" />
<line x1="150" y1="850" x2="300" y2="850" stroke="black" />
<circle cx="150" cy="700" r="3.5" fill="black" fill-opacity="1" />
<circle cx="300" cy="700" r="3.5" fill="black" fill-opacity="1" />
<circle cx="200" cy="750" r="3.5" fill="black" fill-opacity="1" />
<circle cx="250" cy="750" r="3.5" fill="black" fill-opacity="1" />
<circle cx="200" cy="800" r="3.5" fill="black" fill-opacity="1" />
<circle cx="250" cy="800" r="3.5" fill="black" fill-opacity="1" />
<circle cx="150" cy="850" r="3.5" fill="black" fill-opacity="1" />
<circle cx="300" cy="850" r="3.5" fill="black" fill-opacity="1" />
<text x="200" y="680" fill="black" >(28 ; </text>
<text x="200" y="680" fill="black" >(28 ; 25)</text>


</svg>
