<?xml version="1.0" encoding="utf-8"?>
<svg xmlns="http://www.w3.org/2000/svg" version="1.1" width="5000" height="20000">

<line x1="375" y1="50" x2="475" y2="50" stroke="black" />
<line x1="375" y1="50" x2="375" y2="150" stroke="black" />
<line x1="475" y1="50" x2="375" y2="150" stroke="black" />
<line x1="475" y1="50" x2="475" y2="150" stroke="black" />
<line x1="375" y1="150" x2="475" y2="150" stroke="black" />
<circle cx="375" cy="50" r="7" fill="black" fill-opacity="1" />
<circle cx="475" cy="50" r="7" fill="black" fill-opacity="1" />
<circle cx="375" cy="150" r="7" fill="black" fill-opacity="1" />
<circle cx="475" cy="150" r="7" fill="black" fill-opacity="1" />
<line x1="1050" y1="900" x2="1900" y2="900" stroke="black" />
<line x1="1100" y1="100" x2="1100" y2="950" stroke="black" />
<circle cx="1180" cy="260" r="2" fill="rgb(255,0,0)" fill-opacity="100" />
<circle cx="1385.71" cy="726.667" r="2" fill="rgb(255,0,0)" fill-opacity="100" />
<circle cx="1694.29" cy="446.667" r="2" fill="rgb(255,0,0)" fill-opacity="100" />
<circle cx="1694.29" cy="353.333" r="2" fill="rgb(255,0,0)" fill-opacity="100" />
<circle cx="1797.14" cy="260" r="2" fill="rgb(255,0,0)" fill-opacity="100" />
<circle cx="1900" cy="820" r="2" fill="rgb(255,0,0)" fill-opacity="100" />
<circle cx="2002.86" cy="726.667" r="2" fill="rgb(255,0,0)" fill-opacity="100" />
<circle cx="2002.86" cy="-113.333" r="2" fill="rgb(255,0,0)" fill-opacity="100" />
<circle cx="2002.86" cy="-206.667" r="2" fill="rgb(255,0,0)" fill-opacity="100" />
<circle cx="2208.57" cy="260" r="2" fill="rgb(255,0,0)" fill-opacity="100" />
<circle cx="2311.43" cy="446.667" r="2" fill="rgb(255,0,0)" fill-opacity="100" />
<circle cx="2517.14" cy="-20" r="2" fill="rgb(255,0,0)" fill-opacity="100" />
<circle cx="2620" cy="-113.333" r="2" fill="rgb(255,0,0)" fill-opacity="100" />
<circle cx="2825.71" cy="-580" r="2" fill="rgb(255,0,0)" fill-opacity="100" />
<circle cx="1180" cy="260" r="5" fill="rgb(0,200,0)" fill-opacity="100" />
<circle cx="1385.71" cy="726.667" r="5" fill="rgb(0,200,0)" fill-opacity="100" />
<circle cx="1900" cy="820" r="5" fill="rgb(0,200,0)" fill-opacity="100" />
<line x1="150" y1="450" x2="150" y2="500" stroke="black" />
<line x1="200" y1="450" x2="150" y2="500" stroke="black" />
<line x1="150" y1="500" x2="200" y2="500" stroke="black" />
<circle cx="150" cy="450" r="3.5" fill="black" fill-opacity="1" />
<circle cx="200" cy="450" r="3.5" fill="black" fill-opacity="1" />
<circle cx="150" cy="500" r="3.5" fill="black" fill-opacity="1" />
<circle cx="200" cy="500" r="3.5" fill="black" fill-opacity="1" />
<text x="150" y="430" fill="black" >(11 ; </text>
<text x="150" y="430" fill="black" >(11 ; 20)</text>
<line x1="450" y1="450" x2="450" y2="500" stroke="black" />
<line x1="500" y1="450" x2="450" y2="500" stroke="black" />
<line x1="500" y1="450" x2="500" y2="500" stroke="black" />
<circle cx="450" cy="450" r="3.5" fill="black" fill-opacity="1" />
<circle cx="500" cy="450" r="3.5" fill="black" fill-opacity="1" />
<circle cx="450" cy="500" r="3.5" fill="black" fill-opacity="1" />
<circle cx="500" cy="500" r="3.5" fill="black" fill-opacity="1" />
<text x="450" y="430" fill="black" >(13 ; </text>
<text x="450" y="430" fill="black" >(13 ; 15)</text>
<line x1="750" y1="450" x2="800" y2="450" stroke="black" />
<line x1="750" y1="450" x2="750" y2="500" stroke="black" />
<line x1="800" y1="450" x2="800" y2="500" stroke="black" />
<circle cx="750" cy="450" r="3.5" fill="black" fill-opacity="1" />
<circle cx="800" cy="450" r="3.5" fill="black" fill-opacity="1" />
<circle cx="750" cy="500" r="3.5" fill="black" fill-opacity="1" />
<circle cx="800" cy="500" r="3.5" fill="black" fill-opacity="1" />
<text x="750" y="430" fill="black" >(18 ; </text>
<text x="750" y="430" fill="black" >(18 ; 14)</text>


</svg>
