<?xml version="1.0" encoding="utf-8"?>
<svg xmlns="http://www.w3.org/2000/svg" version="1.1" width="5000" height="20000">

<line x1="375" y1="50" x2="475" y2="50" stroke="black" />
<line x1="375" y1="50" x2="375" y2="150" stroke="black" />
<line x1="475" y1="50" x2="375" y2="150" stroke="black" />
<line x1="475" y1="50" x2="475" y2="150" stroke="black" />
<line x1="375" y1="150" x2="475" y2="150" stroke="black" />
<circle cx="375" cy="50" r="7" fill="black" fill-opacity="1" />
<circle cx="475" cy="50" r="7" fill="black" fill-opacity="1" />
<circle cx="375" cy="150" r="7" fill="black" fill-opacity="1" />
<circle cx="475" cy="150" r="7" fill="black" fill-opacity="1" />
<line x1="1050" y1="900" x2="1900" y2="900" stroke="black" />
<line x1="1100" y1="100" x2="1100" y2="950" stroke="black" />
<circle cx="1180" cy="260" r="2" fill="rgb(255,0,0)" fill-opacity="100" />
<circle cx="1270" cy="489.091" r="2" fill="rgb(255,0,0)" fill-opacity="100" />
<circle cx="1405" cy="209.091" r="2" fill="rgb(255,0,0)" fill-opacity="100" />
<circle cx="1405" cy="183.636" r="2" fill="rgb(255,0,0)" fill-opacity="100" />
<circle cx="1450" cy="107.273" r="2" fill="rgb(255,0,0)" fill-opacity="100" />
<circle cx="1495" cy="590.909" r="2" fill="rgb(255,0,0)" fill-opacity="100" />
<circle cx="1540" cy="641.818" r="2" fill="rgb(255,0,0)" fill-opacity="100" />
<circle cx="1540" cy="540" r="2" fill="rgb(255,0,0)" fill-opacity="100" />
<circle cx="1540" cy="412.727" r="2" fill="rgb(255,0,0)" fill-opacity="100" />
<circle cx="1630" cy="794.545" r="2" fill="rgb(255,0,0)" fill-opacity="100" />
<circle cx="1675" cy="310.909" r="2" fill="rgb(255,0,0)" fill-opacity="100" />
<circle cx="1765" cy="718.182" r="2" fill="rgb(255,0,0)" fill-opacity="100" />
<circle cx="1810" cy="667.273" r="2" fill="rgb(255,0,0)" fill-opacity="100" />
<circle cx="1900" cy="820" r="2" fill="rgb(255,0,0)" fill-opacity="100" />
<circle cx="1180" cy="260" r="5" fill="rgb(0,200,0)" fill-opacity="100" />
<circle cx="1270" cy="489.091" r="5" fill="rgb(0,200,0)" fill-opacity="100" />
<circle cx="1495" cy="590.909" r="5" fill="rgb(0,200,0)" fill-opacity="100" />
<circle cx="1540" cy="641.818" r="5" fill="rgb(0,200,0)" fill-opacity="100" />
<circle cx="1630" cy="794.545" r="5" fill="rgb(0,200,0)" fill-opacity="100" />
<circle cx="1900" cy="820" r="5" fill="rgb(0,200,0)" fill-opacity="100" />
<line x1="150" y1="450" x2="150" y2="500" stroke="black" />
<line x1="200" y1="450" x2="150" y2="500" stroke="black" />
<line x1="150" y1="500" x2="200" y2="500" stroke="black" />
<circle cx="150" cy="450" r="3.5" fill="black" fill-opacity="1" />
<circle cx="200" cy="450" r="3.5" fill="black" fill-opacity="1" />
<circle cx="150" cy="500" r="3.5" fill="black" fill-opacity="1" />
<circle cx="200" cy="500" r="3.5" fill="black" fill-opacity="1" />
<text x="150" y="430" fill="black" >(11 ; </text>
<text x="150" y="430" fill="black" >(11 ; 120)</text>
<line x1="450" y1="450" x2="450" y2="500" stroke="black" />
<line x1="500" y1="450" x2="450" y2="500" stroke="black" />
<line x1="500" y1="450" x2="500" y2="500" stroke="black" />
<circle cx="450" cy="450" r="3.5" fill="black" fill-opacity="1" />
<circle cx="500" cy="450" r="3.5" fill="black" fill-opacity="1" />
<circle cx="450" cy="500" r="3.5" fill="black" fill-opacity="1" />
<circle cx="500" cy="500" r="3.5" fill="black" fill-opacity="1" />
<text x="450" y="430" fill="black" >(13 ; </text>
<text x="450" y="430" fill="black" >(13 ; 102)</text>
<line x1="750" y1="450" x2="800" y2="450" stroke="black" />
<line x1="750" y1="450" x2="750" y2="500" stroke="black" />
<line x1="800" y1="450" x2="800" y2="500" stroke="black" />
<circle cx="750" cy="450" r="3.5" fill="black" fill-opacity="1" />
<circle cx="800" cy="450" r="3.5" fill="black" fill-opacity="1" />
<circle cx="750" cy="500" r="3.5" fill="black" fill-opacity="1" />
<circle cx="800" cy="500" r="3.5" fill="black" fill-opacity="1" />
<text x="750" y="430" fill="black" >(18 ; </text>
<text x="750" y="430" fill="black" >(18 ; 94)</text>
<line x1="150" y1="700" x2="200" y2="700" stroke="black" />
<line x1="200" y1="700" x2="150" y2="750" stroke="black" />
<line x1="200" y1="700" x2="200" y2="750" stroke="black" />
<circle cx="150" cy="700" r="3.5" fill="black" fill-opacity="1" />
<circle cx="200" cy="700" r="3.5" fill="black" fill-opacity="1" />
<circle cx="150" cy="750" r="3.5" fill="black" fill-opacity="1" />
<circle cx="200" cy="750" r="3.5" fill="black" fill-opacity="1" />
<text x="150" y="680" fill="black" >(19 ; </text>
<text x="150" y="680" fill="black" >(19 ; 90)</text>
<line x1="450" y1="700" x2="500" y2="700" stroke="black" />
<line x1="450" y1="700" x2="450" y2="750" stroke="black" />
<line x1="500" y1="700" x2="450" y2="750" stroke="black" />
<line x1="500" y1="700" x2="500" y2="750" stroke="black" />
<circle cx="450" cy="700" r="3.5" fill="black" fill-opacity="1" />
<circle cx="500" cy="700" r="3.5" fill="black" fill-opacity="1" />
<circle cx="450" cy="750" r="3.5" fill="black" fill-opacity="1" />
<circle cx="500" cy="750" r="3.5" fill="black" fill-opacity="1" />
<text x="450" y="680" fill="black" >(21 ; </text>
<text x="450" y="680" fill="black" >(21 ; 78)</text>
<line x1="750" y1="700" x2="800" y2="700" stroke="black" />
<line x1="750" y1="700" x2="750" y2="750" stroke="black" />
<line x1="800" y1="700" x2="750" y2="750" stroke="black" />
<line x1="800" y1="700" x2="800" y2="750" stroke="black" />
<line x1="750" y1="750" x2="800" y2="750" stroke="black" />
<circle cx="750" cy="700" r="3.5" fill="black" fill-opacity="1" />
<circle cx="800" cy="700" r="3.5" fill="black" fill-opacity="1" />
<circle cx="750" cy="750" r="3.5" fill="black" fill-opacity="1" />
<circle cx="800" cy="750" r="3.5" fill="black" fill-opacity="1" />
<text x="750" y="680" fill="black" >(27 ; </text>
<text x="750" y="680" fill="black" >(27 ; 76)</text>


</svg>
